<?xml version="1.0" standalone="no"?>
<!DOCTYPE svg PUBLIC "-//W3C//DTD SVG 20010904//EN"
 "http://www.w3.org/TR/2001/REC-SVG-20010904/DTD/svg10.dtd">
<svg version="1.0" xmlns="http://www.w3.org/2000/svg"
 width="100.000000pt" height="100.000000pt" viewBox="0 0 100.000000 100.000000"
 preserveAspectRatio="xMidYMid meet">

<g transform="translate(0.000000,100.000000) scale(0.100000,-0.100000)"
fill="#000000" stroke="none">
<path d="M140 500 l0 -440 360 0 360 0 0 440 0 440 -360 0 -360 0 0 -440z
m400 380 c0 -13 -7 -20 -20 -20 -13 0 -20 -7 -20 -20 0 -13 7 -20 20 -20 17 0
20 -7 20 -40 0 -33 -3 -40 -20 -40 -13 0 -20 -7 -20 -20 0 -13 7 -20 20 -20
17 0 20 -7 20 -40 0 -33 -3 -40 -20 -40 -13 0 -20 -7 -20 -20 0 -13 7 -20 20
-20 13 0 20 -7 20 -20 0 -17 -7 -20 -40 -20 l-40 0 0 50 c0 43 3 50 20 50 13
0 20 7 20 20 0 13 -7 20 -20 20 -17 0 -20 7 -20 40 0 33 3 40 20 40 13 0 20 7
20 20 0 13 -7 20 -20 20 -17 0 -20 7 -20 50 l0 50 40 0 c33 0 40 -3 40 -20z
m15 -410 c0 -23 -4 -25 -53 -28 -40 -2 -54 1 -58 12 -13 35 3 47 58 44 49 -3
53 -5 53 -28z m-12 -84 c3 -7 8 -34 12 -59 6 -38 4 -48 -14 -66 -27 -27 -55
-27 -82 0 -18 18 -20 28 -14 66 10 69 13 73 55 73 23 0 40 -5 43 -14z" fill="#90ee90"/>
<path d="M484 309 c-10 -17 13 -36 27 -22 12 12 4 33 -11 33 -5 0 -12 -5 -16
-11z"/>
</g>
</svg>
