<svg xmlns="http://www.w3.org/2000/svg" xmlns:xlink="http://www.w3.org/1999/xlink" id="svg" version="1.1" width="400" height="288.15403934700714" viewBox="0, 0, 400,288.15403934700714"><g id="svgg"><path id="path0" d="M35.888 45.287 C 29.003 46.537,23.934 51.884,22.856 59.033 C 22.466 61.620,22.475 271.197,22.865 272.912 C 23.018 273.584,23.400 274.514,23.786 275.154 C 24.225 275.882,24.445 276.447,24.445 276.843 C 24.445 277.412,24.471 277.438,25.034 277.438 C 25.428 277.438,25.917 277.634,26.514 278.030 C 27.004 278.356,27.813 278.789,28.311 278.993 L 29.217 279.364 199.581 279.407 C 321.468 279.439,370.196 279.399,370.827 279.269 C 373.860 278.645,376.598 275.942,377.311 272.869 C 377.539 271.886,377.561 260.278,377.521 165.310 L 377.475 58.853 377.122 57.343 C 375.556 50.648,371.043 46.364,364.420 45.286 C 362.289 44.939,37.800 44.941,35.888 45.287 " stroke="none" fill="#6cccfb" fill-rule="evenodd"/><path id="path2" d="M36.752 0.285 C 29.965 1.222,25.012 5.649,23.055 12.526 L 22.689 13.813 22.661 37.087 C 22.636 57.455,22.661 60.175,22.864 58.881 C 23.902 52.270,28.289 47.348,34.802 45.489 L 36.082 45.123 199.247 45.072 C 322.664 45.034,362.778 45.069,363.918 45.216 C 371.358 46.179,376.386 51.344,377.373 59.039 C 377.473 59.818,377.528 57.301,377.543 51.289 C 377.565 41.851,377.500 40.735,376.787 38.342 C 375.206 33.037,371.542 29.513,366.013 27.984 L 364.420 27.543 259.523 27.459 L 154.625 27.375 153.861 27.022 C 152.772 26.518,152.852 26.605,149.095 21.850 C 144.896 16.535,138.481 8.454,137.180 6.842 C 134.391 3.384,131.549 1.553,127.503 0.611 L 125.994 0.259 81.624 0.237 C 57.221 0.225,37.028 0.246,36.752 0.285 " stroke="none" fill="#93dcfc" fill-rule="evenodd"/><path id="path3" d="M168.062 279.573 C 188.897 279.596,222.991 279.596,243.826 279.573 C 264.661 279.550,247.614 279.530,205.944 279.530 C 164.274 279.530,147.227 279.550,168.062 279.573 " stroke="none" fill="#3c6c84" fill-rule="evenodd"/><path id="path4" d="M55.811 279.573 C 69.517 279.597,91.894 279.597,105.539 279.573 C 119.184 279.549,107.970 279.530,80.620 279.530 C 53.269 279.530,42.105 279.549,55.811 279.573 M303.419 279.573 C 315.452 279.597,335.193 279.597,347.287 279.573 C 359.381 279.549,349.535 279.530,325.408 279.530 C 301.281 279.530,291.386 279.549,303.419 279.573 " stroke="none" fill="#457b94" fill-rule="evenodd"/></g></svg>