<?xml version="1.0" standalone="no"?>
<!DOCTYPE svg PUBLIC "-//W3C//DTD SVG 20010904//EN"
 "http://www.w3.org/TR/2001/REC-SVG-20010904/DTD/svg10.dtd">
<svg version="1.0" xmlns="http://www.w3.org/2000/svg"
 width="225.000000pt" height="225.000000pt" viewBox="0 0 225.000000 225.000000"
 preserveAspectRatio="xMidYMid meet">

<g transform="translate(0.000000,225.000000) scale(0.100000,-0.100000)"
fill="#000000" stroke="none">
<path d="M0 1123 c0 -631 4 -1123 9 -1117 4 5 71 110 148 234 77 124 259 416
405 650 145 234 280 451 299 482 19 32 39 57 44 57 6 0 104 -159 220 -354 116
-195 212 -354 215 -355 3 0 41 59 84 131 73 121 80 130 93 113 11 -15 201
-332 547 -911 l31 -52 78 -1 77 0 0 1125 0 1125 -1125 0 -1125 0 0 -1127z
m1853 734 c49 -21 98 -67 118 -112 65 -143 -38 -308 -194 -308 -188 1 -286
214 -163 359 55 66 162 93 239 61z" fill="#add8e6"/>
</g>
</svg>
