<svg width="209" height="238" viewBox="0 0 209 238" fill="none" xmlns="http://www.w3.org/2000/svg">
<path fill-rule="evenodd" clip-rule="evenodd" d="M4.94569 112.064C3.15869 113.005 2.05568 114.126 1.32368 115.744L0.705688 117.109V155.775V194.442L1.30569 195.565C2.02769 196.916 2.05669 197.159 1.43869 196.675C1.01669 196.343 1.00669 196.353 1.33569 196.772C1.53569 197.027 1.78768 197.182 1.89468 197.115C2.19268 196.931 3.54268 198.447 3.30968 198.703C3.19768 198.827 3.24269 198.849 3.41069 198.753C3.57869 198.657 3.78269 198.751 3.86369 198.963C4.26769 200.014 3.26569 200.002 88.1727 199.94C133.199 199.908 170.459 199.817 170.973 199.739C173.762 199.315 175.803 197.997 176.989 195.856L177.773 194.442V155.509V116.575L177.029 115.233C176.128 113.61 174.765 112.474 172.975 111.855C171.72 111.421 166.666 111.392 88.9457 111.384L6.25169 111.375L4.94569 112.064ZM54.0387 136.561C68.6827 140.015 69.2707 161.239 54.8387 165.445C53.9127 165.715 51.5747 165.875 47.1727 165.968L40.8387 166.103V170.322C40.8387 172.654 40.7127 174.876 40.5557 175.291C39.4177 178.303 35.5387 178.732 33.5087 176.07L32.8187 175.165L32.8337 157.234C32.8507 136.653 32.7927 137.083 35.6387 136.371C36.9967 136.031 52.4697 136.191 54.0387 136.561ZM95.4587 137.269C115.501 142.121 115.485 172.567 95.4387 177.439C93.7867 177.84 92.1867 177.909 84.4387 177.909C74.3737 177.909 74.3367 177.903 73.0597 176.113L72.4387 175.242V157.642C72.4387 137.844 72.3477 138.777 74.4047 137.473L75.6097 136.709H84.3777C92.3727 136.709 93.3487 136.758 95.4587 137.269ZM145.825 137.23C148.296 138.737 148.361 142.022 145.956 143.857L145.015 144.575L135.794 144.709L126.573 144.842L126.5 149.309L126.426 153.775H134.215C144.186 153.775 145.506 154.279 145.506 158.081C145.506 161.356 144.761 161.611 134.706 161.775L126.573 161.909L126.439 168.709C126.32 174.815 126.254 175.585 125.8 176.256C124.75 177.805 122.29 178.254 120.332 177.255C118.365 176.252 118.439 177.035 118.439 157.277C118.439 137.403 118.354 138.27 120.42 137.247C122.077 136.426 144.482 136.412 145.825 137.23ZM41.0167 144.086C40.9187 144.184 40.8387 147.424 40.8387 151.286V158.309H46.0547C52.1057 158.309 53.0867 158.124 54.7987 156.661C59.3807 152.744 57.4807 145.278 51.6267 144.196C49.9447 143.885 41.3077 143.796 41.0167 144.086ZM80.9057 144.356C80.6457 144.458 80.5727 147.316 80.5727 157.398V170.309L85.7057 170.307C88.5287 170.306 91.6187 170.179 92.5727 170.025C104.469 168.104 105.795 148.946 94.3057 144.968C92.7617 144.433 81.9687 143.94 80.9057 144.356Z" fill="#F15544"/>
<path fill-rule="evenodd" clip-rule="evenodd" d="M42.0387 0.100903C41.7457 0.172903 41.3857 0.323904 41.2387 0.435904C41.0927 0.546904 40.3417 0.786903 39.5717 0.966903C38.8007 1.1479 38.1027 1.4049 38.0197 1.5389C37.9377 1.6729 37.4277 2.0099 36.8877 2.2879C34.1297 3.7069 31.3317 7.5629 30.4887 11.1089C29.9347 13.4339 29.9087 15.7249 29.9047 61.7569C29.9017 93.4359 29.8127 108.149 29.6267 108.034C29.4447 107.922 29.4077 108.343 29.5147 109.283C29.6037 110.063 29.8187 110.791 29.9917 110.901C30.1647 111.011 62.2857 111.104 101.373 111.107L172.439 111.114L173.794 111.745C175.427 112.505 176.875 113.938 177.698 115.608L178.306 116.842L178.378 154.5C178.458 196.297 178.509 194.921 176.79 197.093C176.319 197.688 175.752 198.286 175.529 198.421C175.306 198.556 174.869 198.916 174.557 199.221C174.245 199.526 173.581 199.807 173.081 199.846C172.582 199.885 172.009 199.976 171.81 200.049C171.61 200.122 139.723 200.179 100.949 200.177L30.4507 200.172L30.5397 203.441C30.6067 205.918 30.5377 206.848 30.2527 207.283C29.6927 208.141 29.9207 224.292 30.5177 226.084C30.7457 226.768 30.8517 227.417 30.7527 227.527C30.6537 227.637 30.7047 227.652 30.8657 227.56C31.0407 227.461 31.2997 227.817 31.5037 228.437C31.6937 229.011 32.0117 229.543 32.2107 229.62C32.4097 229.696 32.5727 229.942 32.5727 230.167C32.5727 230.391 33.2607 231.265 34.1017 232.109C34.9427 232.952 35.6027 233.732 35.5677 233.842C35.5337 233.952 35.6027 234.012 35.7207 233.975C36.1037 233.857 38.7187 235.405 38.5627 235.658C38.4797 235.792 38.5977 235.831 38.8247 235.744C39.0527 235.656 39.2397 235.688 39.2397 235.813C39.2397 235.939 39.6167 236.068 40.0767 236.101C40.5367 236.133 41.1367 236.362 41.4097 236.609C41.6827 236.856 41.9057 236.932 41.9057 236.778C41.9057 236.591 42.2377 236.575 42.9057 236.73C44.4907 237.097 194.433 237.046 194.876 236.678C195.076 236.512 195.239 236.441 195.239 236.519C195.239 237.139 200.064 235.255 201.423 234.104C201.67 233.895 202.018 233.813 202.197 233.924C202.392 234.044 202.453 234.013 202.35 233.847C202.129 233.488 202.861 232.875 203.234 233.106C203.391 233.202 203.502 233.183 203.481 233.062C203.383 232.495 203.542 232.175 203.922 232.175C204.15 232.175 204.258 232.047 204.162 231.891C204.065 231.734 204.236 231.541 204.543 231.46C204.849 231.38 205.036 231.212 204.959 231.086C204.745 230.741 205.656 229.488 205.976 229.685C206.131 229.781 206.176 229.73 206.078 229.571C205.981 229.414 206.091 229.095 206.323 228.863C206.554 228.632 206.661 228.442 206.559 228.442C206.457 228.442 206.539 228.244 206.74 228.003C207.877 226.638 207.852 227.983 207.93 164.397C208.001 106.879 207.981 103.908 207.53 103.022C207.182 102.34 207.151 102.127 207.414 102.228C207.828 102.387 207.905 101.889 207.505 101.642C207.351 101.546 207.33 101.286 207.456 101.026C207.7 100.523 207.688 100.256 207.388 99.5749C207.275 99.3189 207.248 98.9359 207.329 98.7259C207.41 98.5149 207.333 98.2819 207.158 98.2079C206.935 98.1139 206.968 97.9909 207.265 97.7999C207.739 97.4969 207.863 96.1809 207.506 95.2419C207.378 94.9049 207.338 94.5659 207.416 94.4869C207.687 94.2169 207.652 91.6419 207.378 91.6339C207.228 91.6289 207.316 91.4659 207.573 91.2709C208.07 90.8929 208.219 89.7749 207.773 89.7749C207.626 89.7749 207.506 89.3549 207.506 88.8419C207.506 88.3289 207.626 87.9089 207.773 87.9089C207.919 87.9089 208.024 87.4589 208.004 86.9089L207.969 85.9089L207.773 86.8419C207.603 87.6469 207.571 87.5489 207.541 86.1309C207.518 85.0369 207.618 84.4409 207.839 84.3509C208.055 84.2639 208.079 84.1379 207.906 83.9959C207.581 83.7269 207.493 79.6419 207.812 79.6419C208.13 79.6419 208.097 78.6419 207.773 78.4419C207.404 78.2139 207.438 77.1499 207.826 76.7619C208.075 76.5129 208.075 76.4419 207.826 76.4419C207.65 76.4419 207.506 76.3149 207.506 76.1599C207.506 76.0039 207.656 75.9669 207.839 76.0769C208.034 76.1939 208.006 76.0679 207.773 75.7749C207.54 75.4829 207.512 75.3569 207.706 75.4729C207.889 75.5829 208.039 75.5459 208.039 75.3909C208.039 75.2359 207.863 75.1089 207.648 75.1089C207.41 75.1089 207.316 74.9519 207.409 74.7099C207.493 74.4909 207.649 74.3659 207.756 74.4319C207.863 74.4979 207.95 74.3769 207.95 74.1639C207.95 73.9499 207.776 73.7749 207.562 73.7749C207.247 73.7749 207.237 73.6999 207.506 73.3749C207.689 73.1549 207.733 72.9729 207.605 72.9709C207.477 72.9689 207.553 72.8509 207.773 72.7089C208.115 72.4879 208.105 72.4499 207.706 72.4459C207.449 72.4439 207.239 72.3219 207.239 72.1749C207.239 72.0289 207.419 71.9089 207.639 71.9089C208.134 71.9089 208.166 71.4809 207.686 71.2969C207.467 71.2129 207.326 70.6949 207.315 69.9369C207.306 69.2649 207.406 68.7799 207.537 68.8609C207.668 68.9419 207.704 69.2879 207.619 69.6289C207.533 69.9709 207.593 70.3309 207.751 70.4289C207.954 70.5539 208.034 69.0089 208.021 65.1909C208.003 59.9709 207.803 57.9439 207.443 59.3219C207.31 59.8309 207.12 59.9019 205.998 59.8679C205.287 59.8459 196.006 59.8569 185.373 59.8929C174.739 59.9289 165.979 59.9379 165.906 59.9139C165.833 59.8899 165.353 59.8309 164.839 59.7829C156.493 59.0069 152.196 56.2059 149.431 49.7369L148.706 48.0419L148.632 24.3749C148.592 11.3589 148.66 0.708903 148.784 0.708903C148.908 0.708903 149.254 0.978903 149.552 1.3089C150.939 2.8419 156.335 7.9679 156.446 7.8569C156.515 7.7879 154.887 6.0019 152.828 3.8869L149.084 0.0419035L95.8277 0.00490282C66.5377 -0.0150972 42.3327 0.0279035 42.0387 0.100903ZM159.279 10.8279C159.419 11.2489 160.774 12.3409 160.927 12.1569C160.98 12.0939 160.602 11.6829 160.087 11.2439C159.573 10.8049 159.209 10.6179 159.279 10.8279ZM163.098 14.8339C164.407 16.1489 165.544 17.1589 165.625 17.0789C165.706 16.9979 165.539 16.7619 165.255 16.5539C164.97 16.3459 164.826 16.1749 164.935 16.1749C165.043 16.1749 164.272 15.3349 163.221 14.3089C162.169 13.2819 161.176 12.4419 161.013 12.4419C160.85 12.4419 161.788 13.5179 163.098 14.8339ZM166.521 18.1839C166.932 18.5459 167.392 18.8419 167.541 18.8419C167.691 18.8419 167.457 18.5419 167.021 18.1749C165.995 17.3119 165.538 17.3189 166.521 18.1839ZM171.171 22.8909C173.259 24.9679 175.027 26.6099 175.098 26.5389C175.281 26.3559 172.692 23.6419 172.334 23.6419C172.172 23.6419 172.039 23.5129 172.039 23.3559C172.039 23.0289 171.584 22.5749 170.828 22.1459C170.541 21.9839 170.306 21.7429 170.306 21.6109C170.306 21.2669 168.033 19.1079 167.674 19.1109C167.508 19.1119 169.082 20.8129 171.171 22.8909ZM175.506 27.0089C175.506 27.3559 182.864 34.5749 183.218 34.5749C183.376 34.5749 183.506 34.7039 183.506 34.8609C183.506 35.2239 184.286 36.0169 184.466 35.8369C184.65 35.6529 179.749 30.6919 179.465 30.7749C179.341 30.8119 179.239 30.7269 179.239 30.5859C179.239 30.4449 178.663 29.7549 177.959 29.0529C176.189 27.2849 175.506 26.7169 175.506 27.0089ZM184.778 36.0589C184.693 36.1969 189.712 41.3949 195.931 47.6109C202.151 53.8259 207.239 58.7659 207.239 58.5879C207.239 58.1669 194.562 45.5089 194.139 45.5089C193.962 45.5089 193.886 45.4389 193.971 45.3549C194.14 45.1859 185.999 36.9749 185.662 36.9749C185.548 36.9749 185.337 36.7129 185.194 36.3919C185.05 36.0699 184.863 35.9209 184.778 36.0589ZM165.484 60.6139C165.717 61.2219 165.586 61.2369 165.039 60.6639C164.684 60.2919 164.661 60.1749 164.944 60.1749C165.148 60.1749 165.391 60.3729 165.484 60.6139ZM207.164 62.2419C207.103 62.6449 207.053 62.3149 207.053 61.5089C207.053 60.7019 207.103 60.3719 207.164 60.7749C207.225 61.1789 207.225 61.8389 207.164 62.2419ZM167.506 62.6139C167.506 62.9249 165.943 61.7519 165.921 61.4239C165.913 61.3039 166.266 61.4619 166.706 61.7749C167.146 62.0889 167.506 62.4659 167.506 62.6139ZM169.134 63.3749C169.382 63.0199 169.4 63.0199 169.294 63.3749C169.229 63.5949 169.359 63.9859 169.584 64.2439C170.401 65.1819 169.626 65.0219 168.646 64.0509C168.067 63.4749 167.897 63.2049 168.247 63.4129C168.768 63.7229 168.896 63.7179 169.134 63.3749ZM174.756 69.9009C175.117 70.3989 174.704 70.3899 174.15 69.8879C173.197 69.0259 172.868 68.1649 173.801 68.9749C174.223 69.3419 174.653 69.7589 174.756 69.9009ZM174.965 68.6979C175.617 69.1109 175.155 69.2259 174.439 68.8299C174.053 68.6159 173.941 68.4589 174.173 68.4559C174.393 68.4529 174.749 68.5619 174.965 68.6979ZM175.773 70.4419C175.59 70.6619 175.321 70.8419 175.174 70.8419C175.025 70.8419 175.054 70.6649 175.239 70.4419C175.422 70.2219 175.691 70.0419 175.838 70.0419C175.987 70.0419 175.958 70.2189 175.773 70.4419ZM180.306 75.4579C180.306 75.6049 180.066 75.5069 179.773 75.2419C179.479 74.9769 179.239 74.6389 179.239 74.4929C179.239 74.3459 179.479 74.4429 179.773 74.7089C180.066 74.9739 180.306 75.3109 180.306 75.4579ZM183.877 77.3969C184.128 78.0489 184.074 78.1359 183.639 77.7749C183.196 77.4069 183.109 76.9749 183.477 76.9749C183.608 76.9749 183.788 77.1649 183.877 77.3969ZM182.752 77.6829C183.02 77.9259 183.239 78.3149 183.239 78.5469C183.239 78.8539 183.056 78.7729 182.573 78.2509C181.616 77.2189 181.754 76.7809 182.752 77.6829ZM185.557 80.3379C185.912 80.7209 186.139 81.0979 186.062 81.1739C185.826 81.4109 184.573 80.4539 184.573 80.0359C184.573 79.4699 184.823 79.5469 185.557 80.3379ZM188.523 83.3589C188.589 83.5589 188.489 83.6589 188.289 83.5919C188.097 83.5279 187.887 83.3179 187.823 83.1249C187.756 82.9249 187.856 82.8249 188.056 82.8919C188.248 82.9559 188.459 83.1659 188.523 83.3589ZM190.861 85.2999C190.847 85.6749 191.022 85.9289 191.338 85.9929C191.648 86.0549 191.768 85.9829 191.655 85.8009C191.556 85.6399 191.602 85.5089 191.757 85.5089C192.167 85.5089 192.103 85.9239 191.632 86.3149C191.293 86.5959 191.109 86.5459 190.551 86.0209C189.923 85.4319 189.909 85.3659 190.343 85.0489C190.925 84.6229 190.885 84.6029 190.861 85.2999ZM192.379 87.5699C192.276 87.8389 192.156 87.8499 191.875 87.6159C191.386 87.2099 191.409 87.1349 192.01 87.1799C192.31 87.2019 192.459 87.3609 192.379 87.5699ZM194.173 87.7749C194.358 87.9979 194.387 88.1749 194.238 88.1749C194.091 88.1749 193.822 87.9949 193.639 87.7749C193.454 87.5519 193.425 87.3749 193.574 87.3749C193.721 87.3749 193.99 87.5549 194.173 87.7749ZM193.373 88.2799C193.373 88.4839 193.57 88.7269 193.811 88.8199C194.052 88.9119 194.182 89.0549 194.101 89.1359C193.873 89.3639 192.557 88.4169 192.724 88.1459C192.951 87.7789 193.373 87.8659 193.373 88.2799ZM195.801 90.0419C196.049 89.6859 196.067 89.6859 195.961 90.0419C195.896 90.2619 196.026 90.6529 196.25 90.9099C196.475 91.1679 196.569 91.4679 196.46 91.5769C196.351 91.6849 196.122 91.5839 195.951 91.3519C195.78 91.1189 195.369 90.7849 195.039 90.6099C194.709 90.4339 194.439 90.1729 194.439 90.0299C194.439 89.8869 194.682 89.9209 194.981 90.1059C195.428 90.3839 195.571 90.3719 195.801 90.0419ZM199.38 94.5229C199.19 94.7139 198.173 93.8939 198.173 93.5499C198.173 93.3139 198.4 93.4049 198.821 93.8099C199.178 94.1529 199.429 94.4739 199.38 94.5229ZM202.02 95.5139C202.302 95.7279 202.449 95.9879 202.346 96.0909C202.242 96.1939 201.895 96.0159 201.573 95.6939C200.917 95.0389 201.227 94.9139 202.02 95.5139ZM201.424 96.3749C202.175 97.2499 202.291 97.5909 201.735 97.2929C200.897 96.8449 200.146 95.9089 200.623 95.9089C200.843 95.9089 201.204 96.1189 201.424 96.3749ZM35.2387 137.026C32.9937 138.178 33.1067 137.113 33.1057 157.189C33.1057 176.757 33.0277 175.871 34.8447 176.943C38.5917 179.154 40.5687 176.702 40.5707 169.842L40.5727 165.775H46.3887C51.3987 165.775 52.4987 165.699 54.3217 165.226C67.9367 161.694 68.7267 142.029 55.4437 137.303C52.4987 136.255 37.1517 136.045 35.2387 137.026ZM75.9057 137.209C72.6637 138.047 72.8407 136.882 72.8407 157.375C72.8407 177.081 72.7417 176.06 74.7607 177.162C76.3787 178.046 92.9737 177.847 96.1827 176.906C115.087 171.362 114.669 142.089 95.6207 137.62C93.5877 137.143 77.4627 136.807 75.9057 137.209ZM121.338 137.289C120.805 137.431 120.025 137.906 119.604 138.345L118.839 139.143L118.758 156.926C118.683 173.28 118.713 174.778 119.132 175.573C120.078 177.368 122.721 178.066 124.489 176.989C125.978 176.081 126.028 175.829 126.173 168.442L126.306 161.642L134.439 161.509C143.321 161.363 143.575 161.319 144.842 159.714C145.945 158.316 145.13 155.884 143.159 154.691C142.381 154.22 141.607 154.164 134.306 154.042L126.306 153.909V149.242V144.575L135.548 144.442L144.791 144.309L145.815 143.484C148.341 141.451 147.716 137.929 144.706 137.234C143.292 136.908 122.585 136.956 121.338 137.289ZM52.9047 144.173C59.1377 146.505 59.1677 155.888 52.9487 158.11C51.8597 158.499 50.7087 158.578 46.1147 158.577L40.5897 158.575L40.5147 151.709C40.4727 147.932 40.4777 144.572 40.5247 144.242C40.6487 143.367 50.6017 143.311 52.9047 144.173ZM92.3046 144.185C106.169 145.983 106.059 167.787 92.1727 170.439C90.1037 170.834 81.5597 170.999 80.6787 170.661C80.2827 170.509 80.0917 144.479 80.4837 144.086C80.7557 143.814 90.0446 143.891 92.3046 144.185ZM177.844 198.716C177.805 198.749 177.503 198.859 177.173 198.96C176.464 199.178 176.332 198.573 176.973 198.042C177.193 197.859 177.385 197.455 177.399 197.143C177.414 196.831 177.536 197.043 177.67 197.616C177.805 198.188 177.883 198.683 177.844 198.716ZM175.98 200.057C176.306 200.285 176.573 200.645 176.573 200.857C176.573 201.366 175.532 201.354 175.336 200.844C175.252 200.624 175.076 200.511 174.945 200.593C174.425 200.914 174.089 200.363 174.583 200.001C175.201 199.55 175.259 199.552 175.98 200.057ZM172.315 200.831C172.049 201.152 172.116 201.251 172.695 201.396C173.081 201.493 173.34 201.63 173.27 201.701C173.079 201.892 171.239 201.236 171.239 200.977C171.239 200.729 171.709 200.495 172.272 200.463C172.563 200.446 172.572 200.522 172.315 200.831ZM177.486 201.597C177.392 201.842 177.151 202.042 176.95 202.042C176.655 202.042 176.644 201.911 176.891 201.368C177.222 200.643 177.771 200.854 177.486 201.597ZM33.3087 201.425C33.0537 201.492 32.5737 201.494 32.2417 201.431C31.9107 201.367 32.1187 201.312 32.7057 201.309C33.2927 201.306 33.5637 201.358 33.3087 201.425ZM136.284 201.677C136.345 201.731 135.775 201.775 135.017 201.775C134.259 201.775 133.639 201.67 133.639 201.541C133.639 201.328 136.026 201.45 136.284 201.677ZM164.039 201.497C165.376 201.682 165.274 201.704 162.89 201.738C161.205 201.762 160.333 201.68 160.439 201.509C160.627 201.206 161.899 201.202 164.039 201.497ZM172.507 206.375C172.375 206.777 171.239 206.991 171.239 206.613C171.239 206.38 171.686 206.172 172.395 206.073C172.517 206.056 172.568 206.192 172.507 206.375Z" fill="#E4E4E5"/>
<path fill-rule="evenodd" clip-rule="evenodd" d="M148.913 23.8359C148.959 36.2689 149.065 46.9219 149.15 47.5089C149.492 49.8909 152.542 54.9109 154.07 55.6069C154.42 55.7669 154.706 56.0139 154.706 56.1569C154.706 56.2999 155.156 56.6229 155.706 56.8739C156.256 57.1259 156.886 57.4739 157.106 57.6489C157.326 57.8229 158.046 58.1069 158.706 58.2789C159.366 58.4519 160.146 58.6789 160.439 58.7839C161.154 59.0399 206.439 59.0329 206.439 58.7769C206.439 58.6659 206.259 58.5749 206.039 58.5749C205.819 58.5749 205.639 58.3949 205.639 58.1749C205.639 57.9549 205.479 57.7749 205.282 57.7749C205.086 57.7749 204.788 57.4749 204.621 57.1089C204.439 56.7089 204.096 56.4419 203.763 56.4419C203.442 56.4419 203.281 56.3229 203.381 56.1609C203.627 55.7639 202.416 54.7859 201.859 54.9309C201.605 54.9979 201.182 54.8889 200.918 54.6889C200.655 54.4889 200.565 54.3219 200.719 54.3169C200.873 54.3119 201.13 54.4389 201.289 54.5989C201.456 54.7659 201.643 54.7849 201.73 54.6449C201.983 54.2359 199.374 51.5269 198.969 51.7779C198.712 51.9359 198.662 51.8749 198.786 51.5519C198.897 51.2629 198.82 51.1089 198.564 51.1089C198.349 51.1089 198.173 50.9829 198.173 50.8299C198.173 50.6769 197.303 49.6709 196.239 48.5939C195.176 47.5169 193.797 46.1129 193.175 45.4729C190.744 42.9719 190.502 42.7719 190.162 42.9819C189.944 43.1169 189.89 43.0839 190.01 42.8889C190.212 42.5629 183.523 35.6419 183.007 35.6419C182.841 35.6419 182.736 35.5479 182.773 35.4339C182.931 34.9379 175.845 28.1639 175.341 28.3289C174.945 28.4579 174.921 28.4349 175.224 28.2199C175.671 27.9029 169.72 21.7749 168.965 21.7749C168.722 21.7749 168.619 21.6489 168.724 21.4789C168.912 21.1749 166.92 19.1089 166.439 19.1089C166.292 19.1089 166.173 18.9819 166.173 18.8279C166.173 18.1609 164.576 16.8259 164.277 17.2419C164.034 17.5799 164.012 17.5689 164.139 17.1749C164.297 16.6849 156.238 8.2379 155.745 8.3749C155.614 8.4119 155.531 8.3519 155.563 8.2419C155.594 8.1319 154.092 6.5089 152.225 4.6359L148.83 1.2299L148.913 23.8359ZM151.611 9.1349C151.967 9.2709 151.973 9.3469 151.652 9.6679C151.104 10.2159 150.258 10.1289 150.095 9.5089C149.95 8.9519 150.672 8.7739 151.611 9.1349ZM156.049 14.0519C156.526 14.5279 156.544 14.6419 156.201 14.9849C155.223 15.9629 154.126 14.9449 155.039 13.9079C155.465 13.4239 155.414 13.4169 156.049 14.0519ZM155.034 14.6249C155.199 15.1199 155.773 15.2019 155.773 14.7309C155.773 14.4989 155.583 14.3089 155.35 14.3089C155.118 14.3089 154.976 14.4509 155.034 14.6249ZM161.382 19.3849C161.859 19.8619 161.877 19.9749 161.535 20.3179C160.556 21.2959 159.459 20.2789 160.373 19.2409C160.798 18.7569 160.747 18.7499 161.382 19.3849ZM160.367 19.9589C160.532 20.4529 161.106 20.5349 161.106 20.0639C161.106 19.8319 160.916 19.6419 160.684 19.6419C160.452 19.6419 160.309 19.7839 160.367 19.9589ZM166.716 24.7179C167.192 25.1949 167.211 25.3089 166.868 25.6519C165.89 26.6299 164.792 25.6119 165.706 24.5739C166.132 24.0909 166.081 24.0829 166.716 24.7179ZM165.7 25.2919C165.865 25.7859 166.439 25.8679 166.439 25.3979C166.439 25.1649 166.249 24.9749 166.017 24.9749C165.785 24.9749 165.642 25.1179 165.7 25.2919ZM172.049 30.0519C172.526 30.5279 172.544 30.6419 172.201 30.9849C171.223 31.9629 170.126 30.9449 171.039 29.9079C171.465 29.4239 171.414 29.4169 172.049 30.0519ZM171.034 30.6249C171.199 31.1199 171.773 31.2019 171.773 30.7309C171.773 30.4989 171.583 30.3089 171.35 30.3089C171.118 30.3089 170.976 30.4509 171.034 30.6249ZM177.382 35.3849C177.859 35.8619 177.877 35.9749 177.535 36.3179C176.556 37.2959 175.459 36.2789 176.373 35.2409C176.798 34.7569 176.747 34.7499 177.382 35.3849ZM176.367 35.9589C176.532 36.4529 177.106 36.5349 177.106 36.0639C177.106 35.8319 176.916 35.6419 176.684 35.6419C176.452 35.6419 176.309 35.7849 176.367 35.9589ZM182.304 41.5149C182.158 41.9739 182.086 41.9929 181.754 41.6619C181.287 41.1949 181.281 41.0529 181.706 40.5919C182.145 40.1159 182.55 40.7399 182.304 41.5149ZM187.506 42.8609C187.506 43.3519 187.462 43.3689 187.106 43.0129C186.886 42.7929 186.706 42.5449 186.706 42.4609C186.706 42.3769 186.886 42.3089 187.106 42.3089C187.333 42.3089 187.506 42.5479 187.506 42.8609ZM188.839 46.8419C188.839 47.2569 188.662 47.3749 188.039 47.3749C187.009 47.3749 186.954 46.6539 187.973 46.4999C188.376 46.4389 188.736 46.3709 188.773 46.3489C188.809 46.3269 188.839 46.5489 188.839 46.8419ZM151.334 51.3679C151.13 51.5749 150.713 50.7479 150.732 50.1749C150.745 49.7629 150.829 49.8229 151.103 50.4419C151.298 50.8819 151.401 51.2989 151.334 51.3679ZM193.382 51.3849C193.859 51.8619 193.877 51.9749 193.535 52.3179C192.556 53.2959 191.459 52.2789 192.373 51.2409C192.798 50.7569 192.747 50.7499 193.382 51.3849ZM192.367 51.9589C192.532 52.4529 193.106 52.5349 193.106 52.0639C193.106 51.8319 192.916 51.6419 192.684 51.6419C192.452 51.6419 192.309 51.7849 192.367 51.9589ZM155.239 52.8769C155.239 53.7039 154.598 54.0149 153.959 53.4979C153.017 52.7349 153.182 52.1779 154.19 52.7179C154.6 52.9369 154.706 52.9069 154.706 52.5689C154.706 52.3349 154.826 52.2179 154.973 52.3089C155.119 52.3989 155.239 52.6549 155.239 52.8769ZM198.716 56.7179C199.373 57.3759 198.921 58.0419 197.817 58.0419C197.121 58.0419 197.089 57.2849 197.753 56.5239C198.125 56.0969 198.087 56.0899 198.716 56.7179ZM197.7 57.2919C197.865 57.7859 198.439 57.8679 198.439 57.3979C198.439 57.1649 198.249 56.9749 198.017 56.9749C197.785 56.9749 197.642 57.1179 197.7 57.2919ZM164.184 58.3259C164.28 58.4829 164.305 58.6659 164.238 58.7329C164.052 58.9189 163.239 58.5499 163.239 58.2799C163.239 57.9459 163.971 57.9819 164.184 58.3259ZM48.5087 237.164C48.8407 237.228 49.3207 237.225 49.5757 237.159C49.8307 237.092 49.5587 237.04 48.9727 237.043C48.3857 237.046 48.1767 237.1 48.5087 237.164ZM53.4387 237.159C53.6957 237.226 54.1157 237.226 54.3727 237.159C54.6287 237.092 54.4187 237.037 53.9057 237.037C53.3927 237.037 53.1827 237.092 53.4387 237.159ZM62.1127 237.171C62.7397 237.227 63.6997 237.226 64.2457 237.169C64.7927 237.112 64.2787 237.066 63.1057 237.067C61.9327 237.068 61.4857 237.115 62.1127 237.171ZM69.8387 237.173C70.9027 237.224 72.6427 237.224 73.7057 237.173C74.7687 237.123 73.8987 237.081 71.7727 237.081C69.6457 237.081 68.7757 237.123 69.8387 237.173ZM117.706 237.175C120.603 237.218 125.343 237.218 128.239 237.175C131.136 237.132 128.766 237.097 122.973 237.097C117.179 237.097 114.809 237.132 117.706 237.175ZM173.3 237.168C173.773 237.227 174.613 237.228 175.167 237.17C175.72 237.112 175.333 237.064 174.306 237.063C173.279 237.062 172.827 237.109 173.3 237.168ZM185.706 237.17C186.256 237.227 187.156 237.227 187.706 237.17C188.256 237.112 187.806 237.065 186.706 237.065C185.606 237.065 185.156 237.112 185.706 237.17Z" fill="#B3B3BB"/>
<path fill-rule="evenodd" clip-rule="evenodd" d="M17.8387 110.778C11.3707 110.817 6.17267 110.952 6.17267 111.082C6.17267 111.211 5.74567 111.396 5.22367 111.494C4.70267 111.592 4.06368 111.884 3.80368 112.144C3.54368 112.404 3.12767 112.694 2.87967 112.79C2.63067 112.885 2.34867 113.167 2.25367 113.416C2.15767 113.664 1.86668 114.081 1.60668 114.341C1.34668 114.601 1.00468 115.33 0.846675 115.961C0.688675 116.592 0.447673 117.309 0.309673 117.555C-0.226327 118.512 -0.0113282 192.345 0.533672 194.309C1.08767 196.305 2.16068 198.014 3.19068 198.54C3.83768 198.87 3.81267 198.807 2.93367 197.874C2.39967 197.306 1.67967 196.302 1.33367 195.642L0.705676 194.442V155.775V117.109L1.32367 115.744C2.05567 114.126 3.15867 113.005 4.94567 112.064L6.25167 111.375L88.9457 111.384C166.666 111.392 171.72 111.421 172.975 111.855C174.765 112.474 176.128 113.61 177.029 115.233L177.773 116.575V155.509V194.442L176.989 195.856C176.178 197.32 174.534 198.725 172.839 199.402C172.05 199.718 160.985 199.786 100.906 199.845C61.8557 199.883 29.9057 200.003 29.9057 200.112C29.9057 200.22 42.2357 200.279 57.3057 200.242C72.3757 200.206 104.506 200.146 128.706 200.109L172.706 200.042L174.102 199.306C175.727 198.449 177.468 196.402 177.967 194.759C178.235 193.877 178.306 185.55 178.306 155.242V116.842L177.698 115.608C176.875 113.938 175.427 112.505 173.794 111.745L172.439 111.114L101.422 111.111C62.3617 111.11 30.2017 111.019 29.9547 110.909C29.7077 110.799 24.2557 110.74 17.8387 110.778ZM35.6387 136.371C32.7927 137.083 32.8507 136.653 32.8337 157.234L32.8187 175.165L33.5087 176.07C35.5387 178.732 39.4177 178.303 40.5557 175.291C40.7127 174.876 40.8387 172.647 40.8387 170.297V166.053L46.3727 165.975L51.9057 165.897L46.2387 165.836L40.5727 165.775L40.5707 169.842C40.5687 176.702 38.5917 179.154 34.8447 176.943C33.0277 175.871 33.1057 176.757 33.1057 157.189C33.1067 137.113 32.9937 138.178 35.2387 137.026C37.1517 136.045 52.4987 136.255 55.4437 137.303C68.6577 142.004 67.9527 161.615 54.4387 165.211C53.3387 165.504 52.6787 165.749 52.9727 165.756C53.2657 165.763 54.1057 165.609 54.8387 165.413C69.2457 161.564 68.6487 140.007 54.0387 136.561C52.4697 136.191 36.9967 136.031 35.6387 136.371ZM74.4047 137.473C72.3477 138.777 72.4387 137.844 72.4387 157.642V175.242L73.0597 176.113C74.3367 177.903 74.3737 177.909 84.4387 177.909C92.1867 177.909 93.7867 177.84 95.4387 177.439C115.485 172.567 115.501 142.121 95.4587 137.269C93.3487 136.758 92.3727 136.709 84.3777 136.709H75.6097L74.4047 137.473ZM120.42 137.247C118.354 138.27 118.439 137.403 118.439 157.277C118.439 177.035 118.365 176.252 120.332 177.255C122.29 178.254 124.75 177.805 125.8 176.256C126.254 175.585 126.32 174.815 126.439 168.709L126.573 161.909L134.706 161.775C144.761 161.611 145.506 161.356 145.506 158.081C145.506 154.279 144.186 153.775 134.215 153.775H126.426L126.5 149.309L126.573 144.842L135.794 144.709L145.015 144.575L145.956 143.857C148.361 142.022 148.296 138.737 145.825 137.23C144.482 136.412 122.077 136.426 120.42 137.247ZM95.6207 137.62C114.669 142.089 115.087 171.362 96.1827 176.906C92.9737 177.847 76.3787 178.046 74.7607 177.162C72.7417 176.06 72.8407 177.081 72.8407 157.375C72.8407 136.882 72.6637 138.047 75.9057 137.209C77.4627 136.807 93.5877 137.143 95.6207 137.62ZM144.706 137.234C147.716 137.929 148.341 141.451 145.815 143.484L144.791 144.309L135.548 144.442L126.306 144.575V149.242V153.909L134.306 154.042C141.607 154.164 142.381 154.22 143.159 154.691C145.13 155.884 145.945 158.316 144.842 159.714C143.575 161.319 143.321 161.363 134.439 161.509L126.306 161.642L126.173 168.442C126.028 175.829 125.978 176.081 124.489 176.989C122.721 178.066 120.078 177.368 119.132 175.573C118.713 174.778 118.683 173.28 118.758 156.926L118.839 139.143L119.604 138.345C120.025 137.906 120.805 137.431 121.338 137.289C122.585 136.956 143.292 136.908 144.706 137.234ZM40.5247 144.242C40.4777 144.572 40.4727 147.932 40.5147 151.709L40.5897 158.575L46.2477 158.563C50.6657 158.554 52.0807 158.465 52.7057 158.159C53.1457 157.944 53.2657 157.855 52.9727 157.963C52.6787 158.07 49.8267 158.2 46.6347 158.252L40.8307 158.346L40.9017 151.194L40.9727 144.042L45.3727 143.964C52.2777 143.842 54.2957 144.427 56.0397 147.06C58.1957 150.315 57.6897 154.186 54.7817 156.678C54.0797 157.28 53.6447 157.773 53.8147 157.774C53.9847 157.775 54.6637 157.25 55.3237 156.609C59.2717 152.772 57.9677 146.067 52.9047 144.173C50.6017 143.311 40.6487 143.367 40.5247 144.242ZM80.4837 144.086C80.0917 144.479 80.2827 170.509 80.6787 170.661C81.5597 170.999 90.1037 170.834 92.1727 170.439C106.059 167.787 106.169 145.983 92.3047 144.185C90.0447 143.891 80.7557 143.814 80.4837 144.086ZM94.3057 144.968C105.795 148.946 104.469 168.104 92.5727 170.025C91.6187 170.179 88.5287 170.306 85.7057 170.307L80.5727 170.309V157.398C80.5727 147.316 80.6457 144.458 80.9057 144.356C81.9687 143.94 92.7617 144.433 94.3057 144.968Z" fill="#F2A69D"/>
<path fill-rule="evenodd" clip-rule="evenodd" d="M148.632 24.3749L148.706 48.0419L149.431 49.7369C152.196 56.2059 156.493 59.0069 164.839 59.7829C165.353 59.8309 165.833 59.8899 165.906 59.9139C166.048 59.9609 203.791 59.8599 206.039 59.8069C207.212 59.7789 207.383 59.7019 207.459 59.1689C207.506 58.8349 207.436 58.5949 207.304 58.6359C206.97 58.7369 193.912 45.7149 194.078 45.4459C194.152 45.3269 194.113 45.2609 193.992 45.2989C193.679 45.3999 185.491 37.2629 185.579 36.9389C185.62 36.7899 185.543 36.7369 185.409 36.8189C185.111 37.0039 184.508 36.3289 184.753 36.0839C184.849 35.9879 184.78 35.9089 184.598 35.9089C184.193 35.9089 183.506 35.2499 183.506 34.8609C183.506 34.7039 183.399 34.5749 183.268 34.5749C182.813 34.5749 179.243 31.0519 179.415 30.7729C179.51 30.6189 179.468 30.5679 179.32 30.6589C179.024 30.8409 175.506 27.3479 175.506 26.8719C175.506 26.7089 175.376 26.5749 175.217 26.5749C174.744 26.5749 172.04 23.8559 172.221 23.5629C172.313 23.4139 172.267 23.3679 172.119 23.4589C171.971 23.5509 171.572 23.3289 171.232 22.9669C170.891 22.6049 170.709 22.3089 170.826 22.3089C170.942 22.3089 170.89 22.1299 170.708 21.9119C170.527 21.6929 170.291 21.5689 170.183 21.6349C169.885 21.8189 168.536 20.3039 168.769 20.0469C168.881 19.9239 168.839 19.8999 168.675 19.9929C168.511 20.0859 168.163 19.9259 167.9 19.6359C167.638 19.3459 167.52 19.1089 167.637 19.1089C167.755 19.1089 167.444 18.8339 166.945 18.4979C166.447 18.1619 166.039 17.7119 166.039 17.4979C166.039 17.2839 165.899 17.1089 165.728 17.1089C165.334 17.1089 164.976 16.7559 164.961 16.3529C164.954 16.1819 164.824 16.0649 164.672 16.0939C164.52 16.1219 163.569 15.3119 162.558 14.2939C161.547 13.2749 160.837 12.4419 160.98 12.4409C161.123 12.4399 160.845 12.1999 160.363 11.9059C159.882 11.6119 159.379 11.1029 159.247 10.7739C159.115 10.4449 158.999 10.2759 158.99 10.3979C158.98 10.5209 158.524 10.1609 157.975 9.59791C157.426 9.03591 157.008 8.48191 157.044 8.36791C157.081 8.25391 156.9 8.08191 156.642 7.98691C156.228 7.83391 150.995 2.90391 149.552 1.30891C149.254 0.978907 148.908 0.708908 148.784 0.708908C148.66 0.708908 148.592 11.3589 148.632 24.3749ZM155.563 8.24191C155.531 8.35191 155.614 8.41191 155.745 8.37491C156.238 8.23791 164.297 16.6849 164.139 17.1749C164.012 17.5689 164.034 17.5799 164.277 17.2419C164.576 16.8259 166.173 18.1609 166.173 18.8279C166.173 18.9819 166.292 19.1089 166.439 19.1089C166.92 19.1089 168.912 21.1749 168.724 21.4789C168.619 21.6489 168.722 21.7749 168.965 21.7749C169.72 21.7749 175.671 27.9029 175.224 28.2199C174.921 28.4349 174.945 28.4579 175.341 28.3289C175.845 28.1639 182.931 34.9379 182.773 35.4339C182.736 35.5479 182.841 35.6419 183.007 35.6419C183.523 35.6419 190.212 42.5629 190.01 42.8889C189.89 43.0839 189.944 43.1169 190.162 42.9819C190.502 42.7719 190.744 42.9719 193.175 45.4729C193.797 46.1129 195.176 47.5169 196.239 48.5939C197.303 49.6709 198.173 50.6769 198.173 50.8299C198.173 50.9829 198.349 51.1089 198.564 51.1089C198.82 51.1089 198.897 51.2629 198.786 51.5519C198.662 51.8749 198.712 51.9359 198.969 51.7779C199.374 51.5269 201.983 54.2359 201.73 54.6449C201.643 54.7849 201.456 54.7659 201.289 54.5989C201.13 54.4389 200.873 54.3119 200.719 54.3169C200.565 54.3219 200.655 54.4889 200.918 54.6889C201.182 54.8889 201.605 54.9979 201.859 54.9309C202.416 54.7859 203.627 55.7639 203.381 56.1609C203.281 56.3229 203.442 56.4419 203.763 56.4419C204.096 56.4419 204.439 56.7089 204.621 57.1089C204.788 57.4749 205.086 57.7749 205.282 57.7749C205.479 57.7749 205.639 57.9549 205.639 58.1749C205.639 58.3949 205.819 58.5749 206.039 58.5749C206.259 58.5749 206.439 58.6659 206.439 58.7769C206.439 59.0329 161.154 59.0399 160.439 58.7839C160.146 58.6789 159.366 58.4519 158.706 58.2789C158.046 58.1069 157.326 57.8229 157.106 57.6489C156.886 57.4739 156.256 57.1259 155.706 56.8739C155.156 56.6229 154.706 56.2999 154.706 56.1569C154.706 56.0139 154.42 55.7669 154.07 55.6069C152.542 54.9109 149.492 49.8909 149.15 47.5089C149.065 46.9219 148.959 36.2689 148.913 23.8359L148.83 1.22991L152.225 4.63591C154.092 6.50891 155.594 8.13191 155.563 8.24191ZM150.095 9.50891C150.258 10.1289 151.104 10.2159 151.652 9.66791C152.085 9.23491 151.682 8.97491 150.576 8.97491C150.087 8.97491 149.985 9.08791 150.095 9.50891ZM155.039 13.9079C154.126 14.9449 155.223 15.9629 156.201 14.9849C156.544 14.6419 156.526 14.5279 156.049 14.0519C155.414 13.4169 155.465 13.4239 155.039 13.9079ZM155.773 14.7309C155.773 14.9629 155.63 15.1059 155.456 15.0479C154.962 14.8829 154.88 14.3089 155.35 14.3089C155.583 14.3089 155.773 14.4989 155.773 14.7309ZM160.373 19.2409C159.459 20.2789 160.556 21.2959 161.535 20.3179C161.877 19.9749 161.859 19.8619 161.382 19.3849C160.747 18.7499 160.798 18.7569 160.373 19.2409ZM161.106 20.0639C161.106 20.5349 160.532 20.4529 160.367 19.9589C160.309 19.7839 160.452 19.6419 160.684 19.6419C160.916 19.6419 161.106 19.8319 161.106 20.0639ZM165.706 24.5739C164.792 25.6119 165.89 26.6299 166.868 25.6519C167.211 25.3089 167.192 25.1949 166.716 24.7179C166.081 24.0829 166.132 24.0909 165.706 24.5739ZM166.439 25.3979C166.439 25.8679 165.865 25.7859 165.7 25.2919C165.642 25.1179 165.785 24.9749 166.017 24.9749C166.249 24.9749 166.439 25.1649 166.439 25.3979ZM171.039 29.9079C170.126 30.9449 171.223 31.9629 172.201 30.9849C172.544 30.6419 172.526 30.5279 172.049 30.0519C171.414 29.4169 171.465 29.4239 171.039 29.9079ZM171.773 30.7309C171.773 30.9629 171.63 31.1059 171.456 31.0479C170.962 30.8829 170.88 30.3089 171.35 30.3089C171.583 30.3089 171.773 30.4989 171.773 30.7309ZM176.373 35.2409C175.459 36.2789 176.556 37.2959 177.535 36.3179C177.877 35.9749 177.859 35.8619 177.382 35.3849C176.747 34.7499 176.798 34.7569 176.373 35.2409ZM177.106 36.0639C177.106 36.5349 176.532 36.4529 176.367 35.9589C176.309 35.7849 176.452 35.6419 176.684 35.6419C176.916 35.6419 177.106 35.8319 177.106 36.0639ZM181.706 40.5919C181.281 41.0529 181.287 41.1949 181.754 41.6619C182.086 41.9929 182.158 41.9739 182.304 41.5149C182.55 40.7399 182.145 40.1159 181.706 40.5919ZM186.706 42.4609C186.706 42.5449 186.886 42.7929 187.106 43.0129C187.462 43.3689 187.506 43.3519 187.506 42.8609C187.506 42.5479 187.333 42.3089 187.106 42.3089C186.886 42.3089 186.706 42.3769 186.706 42.4609ZM187.973 46.4999C186.954 46.6539 187.009 47.3749 188.039 47.3749C188.662 47.3749 188.839 47.2569 188.839 46.8419C188.839 46.5489 188.809 46.3269 188.773 46.3489C188.736 46.3709 188.376 46.4389 187.973 46.4999ZM150.732 50.1749C150.713 50.7479 151.13 51.5749 151.334 51.3679C151.401 51.2989 151.298 50.8819 151.103 50.4419C150.829 49.8229 150.745 49.7629 150.732 50.1749ZM192.373 51.2409C191.459 52.2789 192.556 53.2959 193.535 52.3179C193.877 51.9749 193.859 51.8619 193.382 51.3849C192.747 50.7499 192.798 50.7569 192.373 51.2409ZM193.106 52.0639C193.106 52.5349 192.532 52.4529 192.367 51.9589C192.309 51.7849 192.452 51.6419 192.684 51.6419C192.916 51.6419 193.106 51.8319 193.106 52.0639ZM154.706 52.5689C154.706 52.9069 154.6 52.9369 154.19 52.7179C153.182 52.1779 153.017 52.7349 153.959 53.4979C154.441 53.8879 154.608 53.9109 154.893 53.6269C155.305 53.2149 155.346 52.5389 154.973 52.3089C154.826 52.2179 154.706 52.3349 154.706 52.5689ZM197.753 56.5239C197.089 57.2849 197.121 58.0419 197.817 58.0419C198.921 58.0419 199.373 57.3759 198.716 56.7179C198.087 56.0899 198.125 56.0969 197.753 56.5239ZM198.439 57.3979C198.439 57.8679 197.865 57.7859 197.7 57.2919C197.642 57.1179 197.785 56.9749 198.017 56.9749C198.249 56.9749 198.439 57.1649 198.439 57.3979ZM163.239 58.2799C163.239 58.5499 164.052 58.9189 164.238 58.7329C164.305 58.6659 164.28 58.4829 164.184 58.3259C163.971 57.9819 163.239 57.9459 163.239 58.2799ZM165.039 60.6639C165.586 61.2369 165.717 61.2219 165.484 60.6139C165.391 60.3729 165.148 60.1749 164.944 60.1749C164.661 60.1749 164.684 60.2919 165.039 60.6639ZM207.053 61.5089C207.053 62.3149 207.103 62.6449 207.164 62.2419C207.225 61.8389 207.225 61.1789 207.164 60.7749C207.103 60.3719 207.053 60.7019 207.053 61.5089ZM165.921 61.4239C165.943 61.7519 167.506 62.9249 167.506 62.6139C167.506 62.4659 167.146 62.0889 166.706 61.7749C166.266 61.4619 165.913 61.3039 165.921 61.4239ZM168.646 64.0509C169.626 65.0219 170.401 65.1819 169.584 64.2439C169.359 63.9859 169.229 63.5949 169.294 63.3749C169.4 63.0199 169.382 63.0199 169.134 63.3749C168.896 63.7179 168.768 63.7229 168.247 63.4129C167.897 63.2049 168.067 63.4749 168.646 64.0509ZM173.312 68.8449C173.642 69.4819 174.66 70.4439 174.826 70.2769C174.986 70.1169 174.708 69.7639 173.801 68.9749C173.152 68.4109 173.076 68.3909 173.312 68.8449ZM174.439 68.8299C174.805 69.0319 175.162 69.1419 175.231 69.0719C175.411 68.8929 174.649 68.4489 174.173 68.4559C173.941 68.4589 174.053 68.6159 174.439 68.8299ZM207.327 69.9509C207.354 70.6759 207.512 71.2439 207.706 71.3089C208.114 71.4449 208.153 70.6769 207.751 70.4289C207.593 70.3309 207.533 69.9709 207.619 69.6289C207.704 69.2879 207.664 68.9399 207.528 68.8559C207.389 68.7699 207.302 69.2449 207.327 69.9509ZM175.239 70.4419C175.054 70.6649 175.025 70.8419 175.174 70.8419C175.321 70.8419 175.59 70.6619 175.773 70.4419C175.958 70.2189 175.987 70.0419 175.838 70.0419C175.691 70.0419 175.422 70.2219 175.239 70.4419ZM207.239 72.1749C207.239 72.3219 207.419 72.4419 207.639 72.4419C207.859 72.4419 208.039 72.3219 208.039 72.1749C208.039 72.0289 207.859 71.9089 207.639 71.9089C207.419 71.9089 207.239 72.0289 207.239 72.1749ZM207.593 72.8839C207.689 72.9809 207.634 73.2209 207.471 73.4169C207.243 73.6919 207.275 73.7749 207.607 73.7749C207.862 73.7749 208.039 73.5559 208.039 73.2419C208.039 72.9489 207.899 72.7089 207.728 72.7089C207.557 72.7089 207.496 72.7879 207.593 72.8839ZM207.506 74.5749C207.281 74.9959 207.303 75.1089 207.613 75.1089C207.842 75.1089 207.989 74.8849 207.966 74.5749C207.944 74.2819 207.896 74.0419 207.859 74.0419C207.822 74.0419 207.663 74.2819 207.506 74.5749ZM179.239 74.4929C179.239 74.6389 179.479 74.9769 179.773 75.2419C180.066 75.5069 180.306 75.6049 180.306 75.4579C180.306 75.3109 180.066 74.9739 179.773 74.7089C179.479 74.4429 179.239 74.3459 179.239 74.4929ZM183.239 77.2089C183.239 77.3379 183.419 77.5929 183.639 77.7749C184.074 78.1359 184.128 78.0489 183.877 77.3969C183.706 76.9509 183.239 76.8129 183.239 77.2089ZM207.506 77.5979C207.506 77.9889 207.606 78.3089 207.728 78.3089C207.988 78.3089 207.957 77.3379 207.689 77.0699C207.588 76.9689 207.506 77.2059 207.506 77.5979ZM181.906 77.3869C181.906 77.4669 182.206 77.8549 182.573 78.2509C183.056 78.7729 183.239 78.8539 183.239 78.5469C183.239 78.3149 183.02 77.9259 182.752 77.6829C182.263 77.2409 181.906 77.1159 181.906 77.3869ZM184.573 80.0359C184.573 80.4539 185.826 81.4109 186.062 81.1739C186.213 81.0239 185.023 79.6419 184.742 79.6419C184.649 79.6419 184.573 79.8189 184.573 80.0359ZM187.823 83.1249C187.887 83.3179 188.097 83.5279 188.289 83.5919C188.489 83.6589 188.589 83.5589 188.523 83.3589C188.459 83.1659 188.248 82.9559 188.056 82.8919C187.856 82.8249 187.756 82.9249 187.823 83.1249ZM207.51 86.0199C207.508 86.9609 207.556 87.6809 207.616 87.6199C207.846 87.3879 207.94 84.9799 207.732 84.6519C207.606 84.4529 207.512 85.0299 207.51 86.0199ZM190.343 85.0489C189.909 85.3659 189.923 85.4319 190.551 86.0209C191.109 86.5459 191.293 86.5959 191.632 86.3149C192.103 85.9239 192.167 85.5089 191.757 85.5089C191.602 85.5089 191.556 85.6399 191.655 85.8009C191.768 85.9829 191.648 86.0549 191.338 85.9929C191.022 85.9289 190.847 85.6749 190.861 85.2999C190.885 84.6029 190.925 84.6229 190.343 85.0489ZM191.506 87.2259C191.506 87.5799 192.261 87.8769 192.379 87.5699C192.459 87.3609 192.31 87.2019 192.01 87.1799C191.733 87.1589 191.506 87.1799 191.506 87.2259ZM193.639 87.7749C193.822 87.9949 194.091 88.1749 194.238 88.1749C194.387 88.1749 194.358 87.9979 194.173 87.7749C193.99 87.5549 193.721 87.3749 193.574 87.3749C193.425 87.3749 193.454 87.5519 193.639 87.7749ZM192.724 88.1459C192.557 88.4169 193.873 89.3639 194.101 89.1359C194.182 89.0549 194.052 88.9119 193.811 88.8199C193.57 88.7269 193.373 88.4839 193.373 88.2799C193.373 87.8659 192.951 87.7789 192.724 88.1459ZM207.506 88.8859C207.506 89.4239 207.577 89.7929 207.665 89.7059C207.913 89.4569 207.962 87.9089 207.721 87.9089C207.603 87.9089 207.506 88.3489 207.506 88.8859ZM194.439 90.0299C194.439 90.1729 194.709 90.4339 195.039 90.6099C195.369 90.7849 195.78 91.1189 195.951 91.3519C196.122 91.5839 196.351 91.6849 196.46 91.5769C196.569 91.4679 196.475 91.1679 196.25 90.9099C196.026 90.6529 195.896 90.2619 195.961 90.0419C196.067 89.6859 196.049 89.6859 195.801 90.0419C195.571 90.3719 195.428 90.3839 194.981 90.1059C194.682 89.9209 194.439 89.8869 194.439 90.0299ZM207.573 93.1089C207.576 93.6949 207.631 93.9039 207.695 93.5719C207.758 93.2409 207.756 92.7609 207.689 92.5059C207.622 92.2509 207.57 92.5219 207.573 93.1089ZM198.173 93.5499C198.173 93.8939 199.19 94.7139 199.38 94.5229C199.429 94.4739 199.178 94.1529 198.821 93.8099C198.4 93.4049 198.173 93.3139 198.173 93.5499ZM207.422 94.5089C207.358 94.6189 207.403 94.9489 207.521 95.2419C207.708 95.7079 207.738 95.6819 207.754 95.0419C207.772 94.3189 207.648 94.1179 207.422 94.5089ZM201.573 95.6939C201.895 96.0159 202.242 96.1939 202.346 96.0909C202.449 95.9879 202.302 95.7279 202.02 95.5139C201.227 94.9139 200.917 95.0389 201.573 95.6939ZM200.728 96.4669C201.38 97.1869 202.329 97.7229 202.031 97.2019C201.603 96.4539 201.009 95.9089 200.623 95.9089C200.301 95.9089 200.322 96.0169 200.728 96.4669ZM207.239 97.7789C206.988 97.9439 206.939 98.1169 207.106 98.2419C207.429 98.4839 207.461 99.7109 207.15 99.9379C207.028 100.028 207.098 100.166 207.306 100.246C207.599 100.359 207.697 100.069 207.742 98.9499C207.774 98.1569 207.764 97.5109 207.72 97.5129C207.675 97.5149 207.459 97.6349 207.239 97.7789ZM207.864 110.709C207.865 111.882 207.912 112.329 207.968 111.702C208.025 111.074 208.024 110.114 207.967 109.568C207.909 109.022 207.863 109.535 207.864 110.709ZM207.86 117.642C207.861 118.669 207.91 119.056 207.967 118.503C208.025 117.949 208.024 117.109 207.965 116.636C207.906 116.163 207.859 116.615 207.86 117.642ZM177.399 197.143C177.385 197.455 177.193 197.859 176.973 198.042C176.332 198.573 176.464 199.178 177.173 198.96C177.975 198.714 177.946 198.791 177.67 197.616C177.536 197.043 177.414 196.831 177.399 197.143ZM174.583 200.001C174.089 200.363 174.425 200.914 174.945 200.593C175.076 200.511 175.252 200.624 175.336 200.844C175.532 201.354 176.573 201.366 176.573 200.857C176.573 200.018 175.306 199.473 174.583 200.001ZM30.0717 200.852C29.6977 201.828 29.8817 207.796 30.2687 207.235C30.5357 206.848 30.6097 205.909 30.5497 203.679C30.4677 200.616 30.3747 200.065 30.0717 200.852ZM171.573 200.619C171.389 200.693 171.239 200.854 171.239 200.977C171.239 201.236 173.079 201.892 173.27 201.701C173.34 201.63 173.081 201.493 172.695 201.396C172.116 201.251 172.049 201.152 172.315 200.831C172.655 200.421 172.308 200.322 171.573 200.619ZM176.891 201.368C176.644 201.911 176.655 202.042 176.95 202.042C177.399 202.042 177.742 201.238 177.428 200.924C177.3 200.796 177.063 200.992 176.891 201.368ZM207.862 202.575C207.862 203.675 207.909 204.125 207.967 203.575C208.024 203.025 208.024 202.125 207.967 201.575C207.909 201.025 207.862 201.475 207.862 202.575ZM32.2417 201.431C32.5737 201.494 33.0537 201.492 33.3087 201.425C33.5637 201.358 33.2927 201.306 32.7057 201.309C32.1187 201.312 31.9107 201.367 32.2417 201.431ZM133.639 201.541C133.639 201.67 134.259 201.775 135.017 201.775C135.775 201.775 136.345 201.731 136.284 201.677C136.026 201.45 133.639 201.328 133.639 201.541ZM160.439 201.509C160.333 201.68 161.205 201.762 162.89 201.738C165.274 201.704 165.376 201.682 164.039 201.497C161.899 201.202 160.627 201.206 160.439 201.509ZM171.706 206.226C171.449 206.293 171.239 206.467 171.239 206.613C171.239 206.991 172.375 206.777 172.507 206.375C172.62 206.034 172.516 206.014 171.706 206.226ZM207.845 209.775C207.845 210.435 207.897 210.705 207.961 210.375C208.024 210.045 208.024 209.505 207.961 209.175C207.897 208.845 207.845 209.115 207.845 209.775ZM205.391 230.016C205.088 230.442 204.839 230.886 204.839 231.002C204.839 231.117 205.139 230.806 205.506 230.309C205.873 229.812 206.173 229.368 206.173 229.324C206.173 229.071 205.877 229.333 205.391 230.016ZM203.506 232.341C203.506 232.644 201.305 234.321 200.067 234.961C199.584 235.211 199.256 235.481 199.338 235.563C199.508 235.733 201.6 234.408 202.971 233.262C203.483 232.834 203.813 232.394 203.704 232.285C203.595 232.176 203.506 232.201 203.506 232.341ZM34.1727 232.51C34.1727 232.695 36.9757 234.842 37.2177 234.842C37.3247 234.842 36.8337 234.406 36.1257 233.872C35.4187 233.339 34.6887 232.784 34.5057 232.64C34.3227 232.495 34.1727 232.437 34.1727 232.51ZM37.6387 235.1C37.6387 235.375 38.9497 236.02 39.1347 235.835C39.1827 235.787 38.8667 235.537 38.4307 235.28C37.9737 235.01 37.6387 234.934 37.6387 235.1ZM196.803 236.3C196.734 236.369 196.285 236.455 195.805 236.492C195.325 236.529 194.863 236.671 194.778 236.808C194.685 236.958 195.086 236.983 195.788 236.87C196.984 236.679 197.295 236.542 197.062 236.309C196.988 236.235 196.872 236.232 196.803 236.3ZM42.1337 236.776C42.2677 236.911 42.6617 236.976 43.0087 236.921C43.5417 236.837 43.5047 236.8 42.7637 236.677C42.2337 236.589 41.9857 236.628 42.1337 236.776ZM46.6417 237.164C46.9737 237.228 47.4537 237.225 47.7087 237.159C47.9637 237.092 47.6927 237.04 47.1057 237.043C46.5187 237.046 46.3107 237.1 46.6417 237.164ZM55.3097 237.167C55.7147 237.228 56.3147 237.226 56.6427 237.163C56.9707 237.1 56.6387 237.05 55.9057 237.052C55.1727 237.054 54.9037 237.105 55.3097 237.167ZM59.0387 237.166C59.4427 237.227 60.1027 237.227 60.5057 237.166C60.9087 237.105 60.5787 237.055 59.7727 237.055C58.9657 237.055 58.6357 237.105 59.0387 237.166ZM65.8437 237.169C66.3227 237.228 67.0427 237.227 67.4437 237.166C67.8447 237.105 67.4527 237.056 66.5727 237.058C65.6927 237.059 65.3647 237.109 65.8437 237.169ZM84.7917 237.175C89.9727 237.216 98.3727 237.216 103.459 237.175C108.545 237.135 104.306 237.102 94.0387 237.102C83.7727 237.102 79.6107 237.135 84.7917 237.175ZM143.02 237.175C148.399 237.216 157.279 237.216 162.753 237.175C168.227 237.135 163.826 237.102 152.973 237.102C142.119 237.102 137.64 237.135 143.02 237.175ZM176.773 237.168C177.249 237.227 178.029 237.227 178.506 237.168C178.983 237.109 178.593 237.061 177.639 237.061C176.686 237.061 176.296 237.109 176.773 237.168ZM181.173 237.171C181.869 237.226 183.009 237.226 183.706 237.171C184.403 237.116 183.833 237.071 182.439 237.071C181.046 237.071 180.476 237.116 181.173 237.171Z" fill="#B4BCBE"/>
</svg>
