<svg id="svg" version="1.1" xmlns="http://www.w3.org/2000/svg" xmlns:xlink="http://www.w3.org/1999/xlink" width="400" height="400" viewBox="0, 0, 400,400"><g id="svgg"><path id="path0" d="M32.400 187.692 C 32.400 187.861,32.040 188.000,31.600 188.000 C 31.160 188.000,30.800 188.180,30.800 188.400 C 30.800 188.620,30.565 188.800,30.278 188.800 C 29.590 188.800,26.748 191.414,27.077 191.744 C 27.218 191.885,27.143 192.000,26.911 192.000 C 26.678 192.000,26.108 192.808,25.644 193.796 L 24.800 195.591 24.800 262.603 L 24.800 329.615 25.837 331.597 C 26.939 333.705,29.437 336.400,30.288 336.400 C 30.570 336.400,30.800 336.580,30.800 336.800 C 30.800 337.020,31.149 337.200,31.576 337.200 C 32.003 337.200,32.464 337.380,32.600 337.600 C 32.940 338.150,74.660 338.150,75.000 337.600 C 75.164 337.335,115.373 337.199,194.324 337.198 C 276.806 337.196,313.892 337.065,315.000 336.772 C 320.089 335.426,323.156 332.264,324.360 327.123 C 324.995 324.414,324.981 199.224,324.345 197.228 C 322.703 192.069,319.314 189.005,314.200 188.059 C 311.398 187.541,32.400 187.177,32.400 187.692 M137.380 231.367 C 140.733 233.332,141.562 239.764,138.708 241.685 C 135.771 243.662,133.990 243.962,125.100 243.982 L 117.200 244.000 117.200 269.350 C 117.200 297.405,117.250 296.614,115.347 298.574 C 112.145 301.870,106.560 301.180,104.222 297.199 C 103.419 295.833,103.397 295.196,103.281 269.915 L 103.162 244.030 94.481 243.873 C 83.909 243.683,83.473 243.599,81.300 241.333 C 78.358 238.264,79.082 233.388,82.800 231.231 C 84.167 230.437,84.805 230.418,109.965 230.409 L 135.730 230.400 137.380 231.367 M156.011 231.078 C 157.065 231.800,157.735 232.493,159.740 234.936 C 160.433 235.781,161.335 236.861,161.745 237.336 C 162.155 237.811,162.964 238.830,163.543 239.600 C 164.122 240.370,164.699 241.090,164.826 241.200 C 164.954 241.310,166.819 243.626,168.972 246.346 C 174.713 253.599,175.600 254.645,175.600 254.161 C 175.601 253.963,176.071 253.260,176.645 252.600 C 177.220 251.940,178.164 250.774,178.745 250.008 C 179.325 249.242,180.097 248.252,180.460 247.808 C 180.823 247.364,183.415 244.120,186.220 240.600 C 194.939 229.657,196.492 228.680,200.822 231.414 C 205.975 234.667,205.411 238.386,198.505 246.710 C 196.357 249.298,193.970 252.198,193.200 253.155 C 192.430 254.111,191.620 255.102,191.400 255.357 C 191.180 255.611,190.375 256.625,189.611 257.610 C 188.847 258.594,188.079 259.580,187.906 259.800 C 185.830 262.425,184.807 263.862,184.804 264.154 C 184.801 264.448,190.451 271.757,191.178 272.400 C 191.303 272.510,191.896 273.259,192.496 274.065 C 193.097 274.871,193.818 275.771,194.100 276.065 C 194.381 276.359,195.239 277.410,196.006 278.400 C 196.773 279.390,197.788 280.650,198.262 281.200 C 203.375 287.129,206.400 291.807,206.400 293.783 C 206.400 297.805,201.171 301.201,197.158 299.785 C 194.807 298.956,194.442 298.582,188.339 290.760 C 185.675 287.345,180.906 281.187,180.000 279.992 C 176.884 275.882,175.293 274.098,174.953 274.334 C 174.742 274.480,172.425 277.480,169.804 281.000 C 167.183 284.520,164.932 287.490,164.800 287.600 C 164.669 287.710,164.129 288.430,163.600 289.200 C 163.071 289.970,162.531 290.690,162.400 290.800 C 162.269 290.910,161.729 291.630,161.200 292.400 C 160.671 293.170,160.131 293.890,160.000 294.000 C 159.869 294.110,159.323 294.830,158.787 295.600 C 154.464 301.814,148.521 302.112,145.245 296.280 C 144.153 294.336,144.445 290.400,145.680 290.400 C 145.856 290.400,146.000 290.175,146.000 289.900 C 146.001 289.625,146.406 288.919,146.900 288.332 C 147.395 287.744,148.880 285.870,150.200 284.166 C 151.520 282.463,152.780 280.874,153.000 280.635 C 153.220 280.396,153.892 279.541,154.494 278.735 C 155.096 277.929,155.822 277.029,156.107 276.735 C 156.393 276.441,157.062 275.570,157.594 274.800 C 158.126 274.030,158.665 273.310,158.791 273.200 C 158.917 273.090,159.641 272.190,160.400 271.200 C 161.159 270.210,161.874 269.310,161.991 269.200 C 165.121 266.238,165.912 263.776,164.303 262.000 C 163.805 261.450,162.891 260.370,162.272 259.600 C 160.105 256.906,158.859 255.380,156.725 252.800 C 155.541 251.370,153.499 248.850,152.187 247.201 C 150.874 245.552,149.395 243.754,148.900 243.205 C 148.405 242.657,148.000 242.084,148.000 241.933 C 148.000 241.781,147.775 241.412,147.500 241.113 C 142.827 236.029,150.328 227.184,156.011 231.078 M266.451 231.277 C 271.478 234.102,270.421 241.932,264.819 243.362 C 264.039 243.562,259.575 243.793,254.900 243.878 L 246.400 244.030 246.400 270.041 C 246.400 288.841,246.273 296.295,245.941 296.926 C 243.575 301.428,237.021 301.984,234.000 297.939 L 233.000 296.600 232.889 270.300 L 232.778 244.000 224.701 244.000 C 214.985 244.000,212.837 243.623,210.759 241.553 C 207.698 238.504,208.375 233.467,212.155 231.162 C 213.343 230.437,214.570 230.403,239.146 230.401 L 264.891 230.400 266.451 231.277 " stroke="none" fill="#546c7c" fill-rule="evenodd"></path><path id="path1" d="M92.500 0.412 C 92.005 0.611,91.597 0.645,91.594 0.487 C 91.591 0.329,91.456 0.406,91.294 0.659 C 91.132 0.911,90.550 1.181,90.000 1.259 C 89.450 1.336,88.651 1.715,88.225 2.100 C 87.798 2.485,87.213 2.800,86.925 2.800 C 86.636 2.800,86.400 2.980,86.400 3.200 C 86.400 3.420,86.137 3.600,85.816 3.600 C 85.065 3.600,78.665 9.874,78.539 10.734 C 78.487 11.092,78.254 11.449,78.022 11.526 C 77.790 11.603,77.600 11.922,77.600 12.233 C 77.600 12.545,77.441 12.800,77.247 12.800 C 76.904 12.800,76.402 13.972,76.218 15.200 C 76.168 15.530,75.829 16.469,75.464 17.287 C 74.852 18.657,74.800 25.396,74.800 102.987 L 74.800 187.200 194.981 187.200 C 283.043 187.200,315.461 187.320,316.281 187.650 C 316.897 187.897,317.850 188.297,318.400 188.539 C 319.696 189.108,323.296 192.710,323.857 194.000 C 324.097 194.550,324.509 195.461,324.774 196.025 C 325.529 197.634,325.155 338.379,324.390 340.600 C 323.289 343.797,321.322 346.318,318.629 347.982 C 315.250 350.071,321.494 349.970,193.700 349.986 L 74.800 350.000 74.800 365.715 C 74.800 380.146,74.860 381.548,75.531 382.865 C 75.933 383.653,76.221 384.579,76.170 384.921 C 76.120 385.264,76.343 385.646,76.665 385.770 C 76.987 385.893,77.131 386.188,76.985 386.424 C 76.839 386.660,77.053 387.106,77.460 387.414 C 77.867 387.722,78.037 387.980,77.838 387.987 C 77.639 387.994,77.802 388.360,78.200 388.800 C 78.598 389.240,78.772 389.600,78.586 389.600 C 78.401 389.600,79.821 391.130,81.742 393.000 C 83.663 394.870,85.497 396.400,85.818 396.400 C 86.138 396.400,86.400 396.580,86.400 396.800 C 86.400 397.020,86.760 397.200,87.200 397.200 C 87.640 397.200,88.000 397.380,88.000 397.600 C 88.000 397.820,88.371 398.000,88.824 398.000 C 89.277 398.000,89.536 398.180,89.400 398.400 C 89.260 398.627,89.596 398.800,90.176 398.800 C 90.739 398.800,91.200 398.942,91.200 399.115 C 91.200 399.288,91.605 399.509,92.100 399.607 C 94.549 400.087,357.976 399.784,358.460 399.300 C 358.735 399.025,359.284 398.800,359.680 398.800 C 360.076 398.800,360.400 398.620,360.400 398.400 C 360.400 398.180,360.634 398.000,360.920 398.000 C 361.656 398.000,363.593 397.059,363.597 396.700 C 363.599 396.535,363.865 396.400,364.188 396.400 C 364.922 396.400,371.334 390.131,371.457 389.293 C 371.506 388.956,371.708 388.572,371.905 388.440 C 372.103 388.308,372.519 387.615,372.830 386.900 C 373.141 386.185,373.542 385.600,373.721 385.600 C 373.901 385.600,373.968 385.465,373.871 385.300 C 373.773 385.135,373.880 384.550,374.106 384.000 C 374.333 383.450,374.622 382.730,374.749 382.400 C 374.875 382.070,375.025 335.180,375.082 278.200 L 375.186 174.600 338.017 137.452 L 300.848 100.304 297.724 99.978 C 287.194 98.877,278.832 91.818,275.717 81.400 C 275.049 79.163,275.000 76.325,275.000 39.500 L 275.000 0.000 184.200 0.025 C 131.062 0.040,93.027 0.201,92.500 0.412 M84.600 231.165 C 79.579 232.410,78.416 239.107,82.719 241.993 C 84.179 242.971,84.340 242.987,94.100 243.133 L 104.000 243.281 104.000 269.222 C 104.000 289.111,104.117 295.423,104.500 296.281 C 106.626 301.037,112.560 301.463,115.684 297.084 L 116.600 295.800 116.800 269.600 L 117.000 243.400 126.400 243.182 C 134.621 242.991,135.939 242.872,136.910 242.229 C 140.707 239.717,140.774 234.608,137.046 231.825 C 135.895 230.965,87.845 230.361,84.600 231.165 M151.165 231.165 C 144.801 233.201,145.228 238.885,152.304 246.335 C 152.584 246.629,153.303 247.529,153.904 248.335 C 154.504 249.141,155.093 249.890,155.212 250.000 C 155.331 250.110,156.585 251.640,157.997 253.400 C 159.410 255.160,161.879 258.161,163.483 260.068 C 167.104 264.373,167.209 263.616,162.100 270.061 C 159.735 273.044,157.350 276.076,156.800 276.799 C 156.250 277.522,153.615 280.872,150.944 284.243 C 145.028 291.711,144.372 293.238,145.850 296.096 C 148.476 301.174,153.938 301.101,157.795 295.936 C 158.672 294.761,159.490 293.710,159.614 293.600 C 159.737 293.490,160.271 292.770,160.800 292.000 C 161.329 291.230,161.861 290.510,161.982 290.400 C 162.104 290.290,164.879 286.600,168.150 282.200 C 171.421 277.800,174.383 273.972,174.733 273.694 C 175.464 273.113,174.700 272.264,182.711 282.568 C 185.632 286.326,188.308 289.742,188.658 290.159 C 189.007 290.577,190.364 292.319,191.673 294.032 C 196.668 300.568,202.410 301.462,204.966 296.102 C 206.559 292.761,205.884 291.582,193.800 276.604 C 188.520 270.060,184.152 264.502,184.093 264.253 C 184.034 264.004,185.268 262.180,186.834 260.200 C 188.401 258.220,190.159 255.985,190.741 255.234 C 192.006 253.603,197.431 246.988,199.749 244.251 C 204.629 238.491,204.812 234.088,200.268 231.729 C 196.537 229.792,194.679 230.854,188.884 238.234 C 175.833 254.856,175.529 255.199,174.659 254.300 C 174.074 253.696,165.825 243.489,162.794 239.619 C 156.523 231.611,154.459 230.111,151.165 231.165 M213.600 231.201 C 208.953 232.310,208.042 239.178,212.153 242.110 C 213.339 242.957,213.878 243.010,223.200 243.200 L 233.000 243.400 233.200 269.618 C 233.422 298.727,233.226 296.758,236.130 298.973 C 238.192 300.546,241.857 300.368,243.811 298.600 C 245.870 296.737,245.785 297.866,246.000 269.618 L 246.200 243.400 255.600 243.187 C 264.747 242.979,265.040 242.947,266.498 241.987 C 270.155 239.578,270.005 234.257,266.210 231.770 C 264.938 230.936,216.890 230.417,213.600 231.201 " stroke="none" fill="#e3e4e4" fill-rule="evenodd"></path><path id="path2" d="M275.344 38.900 C 275.494 75.361,275.627 80.526,276.439 81.380 C 276.637 81.589,276.800 82.095,276.800 82.505 C 276.800 85.671,283.018 93.635,287.338 96.003 C 291.427 98.245,291.995 98.451,296.400 99.293 C 298.604 99.714,372.835 100.226,373.874 99.827 C 374.282 99.670,275.911 0.800,275.347 0.800 C 275.260 0.800,275.258 17.945,275.344 38.900 M90.478 243.498 C 92.831 243.569,96.791 243.569,99.278 243.499 C 101.765 243.429,99.840 243.371,95.000 243.370 C 90.160 243.370,88.125 243.428,90.478 243.498 M121.100 243.498 C 123.355 243.570,127.045 243.570,129.300 243.498 C 131.555 243.427,129.710 243.369,125.200 243.369 C 120.690 243.369,118.845 243.427,121.100 243.498 M219.678 243.498 C 222.031 243.569,225.991 243.569,228.478 243.499 C 230.965 243.429,229.040 243.371,224.200 243.370 C 219.360 243.370,217.325 243.428,219.678 243.498 M250.522 243.499 C 252.899 243.570,256.679 243.569,258.922 243.498 C 261.165 243.427,259.220 243.369,254.600 243.369 C 249.980 243.370,248.145 243.428,250.522 243.499 M103.788 268.800 C 103.788 282.550,103.838 288.175,103.900 281.300 C 103.961 274.425,103.961 263.175,103.900 256.300 C 103.838 249.425,103.788 255.050,103.788 268.800 M116.988 269.000 C 116.988 282.860,117.039 288.472,117.100 281.471 C 117.161 274.470,117.161 263.130,117.100 256.271 C 117.038 249.412,116.988 255.140,116.988 269.000 M232.988 269.000 C 232.988 282.860,233.039 288.472,233.100 281.471 C 233.161 274.470,233.161 263.130,233.100 256.271 C 233.038 249.412,232.988 255.140,232.988 269.000 M246.188 269.000 C 246.188 282.860,246.239 288.472,246.300 281.471 C 246.361 274.470,246.361 263.130,246.300 256.271 C 246.238 249.412,246.188 255.140,246.188 269.000 M144.893 293.600 C 144.893 294.370,144.975 294.685,145.076 294.300 C 145.176 293.915,145.176 293.285,145.076 292.900 C 144.975 292.515,144.893 292.830,144.893 293.600 " stroke="none" fill="#b3b4bc" fill-rule="evenodd"></path><path id="path3" d="M274.976 0.518 C 274.319 2.231,275.031 79.472,275.724 81.600 C 279.135 92.079,287.284 98.887,297.725 99.978 L 300.849 100.304 337.925 137.377 L 375.000 174.450 375.102 136.815 L 375.204 99.179 325.598 49.590 C 277.108 1.116,275.387 -0.552,274.976 0.518 M324.942 50.217 C 353.112 78.377,374.161 99.717,373.874 99.827 C 372.835 100.226,298.604 99.714,296.400 99.293 C 291.995 98.451,291.427 98.245,287.338 96.003 C 283.018 93.635,276.800 85.671,276.800 82.505 C 276.800 82.095,276.637 81.589,276.439 81.380 C 276.240 81.171,275.948 80.100,275.789 79.000 C 275.492 76.943,275.062 0.800,275.347 0.800 C 275.434 0.800,297.752 23.038,324.942 50.217 M135.332 187.500 C 168.515 187.556,222.695 187.556,255.732 187.500 C 288.770 187.444,261.620 187.397,195.400 187.397 C 129.180 187.397,102.150 187.444,135.332 187.500 M98.300 230.700 C 104.735 230.762,115.265 230.762,121.700 230.700 C 128.135 230.638,122.870 230.587,110.000 230.587 C 97.130 230.587,91.865 230.638,98.300 230.700 M227.500 230.700 C 233.935 230.762,244.465 230.762,250.900 230.700 C 257.335 230.638,252.070 230.587,239.200 230.587 C 226.330 230.587,221.065 230.638,227.500 230.700 M156.800 232.600 C 157.546 233.370,158.247 234.000,158.357 234.000 C 158.467 234.000,157.946 233.370,157.200 232.600 C 156.454 231.830,155.753 231.200,155.643 231.200 C 155.533 231.200,156.054 231.830,156.800 232.600 M209.301 237.000 C 209.305 237.880,209.387 238.193,209.483 237.695 C 209.579 237.198,209.575 236.478,209.475 236.095 C 209.375 235.713,209.296 236.120,209.301 237.000 M203.701 237.400 C 203.705 238.280,203.787 238.593,203.883 238.095 C 203.979 237.598,203.975 236.878,203.875 236.495 C 203.775 236.113,203.696 236.520,203.701 237.400 M324.621 328.230 C 324.033 331.365,321.476 334.593,318.200 336.336 L 316.200 337.400 195.600 337.600 L 75.000 337.800 74.890 343.900 L 74.779 350.000 193.690 349.986 C 321.495 349.970,315.250 350.071,318.629 347.982 C 323.420 345.021,324.708 341.878,324.893 332.700 C 325.022 326.261,325.014 326.134,324.621 328.230 " stroke="none" fill="#c3c4cc" fill-rule="evenodd"></path><path id="path4" d="M314.000 188.000 C 315.530 188.490,316.758 188.490,316.000 188.000 C 315.670 187.787,314.860 187.627,314.200 187.646 C 313.024 187.679,313.020 187.686,314.000 188.000 M318.547 189.607 C 320.889 191.093,322.121 192.299,322.970 193.941 C 323.328 194.633,323.710 195.200,323.818 195.200 C 325.002 195.200,321.192 190.676,318.800 189.242 C 316.625 187.939,316.409 188.251,318.547 189.607 M324.034 196.200 C 324.022 196.640,324.187 197.270,324.400 197.600 C 324.914 198.395,324.914 197.396,324.400 196.200 L 324.056 195.400 324.034 196.200 M324.995 262.400 C 324.995 297.050,325.042 311.225,325.100 293.900 C 325.158 276.575,325.158 248.225,325.100 230.900 C 325.042 213.575,324.995 227.750,324.995 262.400 M83.600 230.818 C 83.162 231.115,83.324 231.152,84.200 230.956 C 85.671 230.627,85.990 230.398,84.967 230.406 C 84.545 230.409,83.930 230.595,83.600 230.818 M135.000 230.800 C 136.196 231.314,137.195 231.314,136.400 230.800 C 136.070 230.587,135.440 230.422,135.000 230.434 L 134.200 230.456 135.000 230.800 M154.906 230.955 C 155.514 231.224,156.861 232.245,157.899 233.222 C 159.447 234.681,159.181 234.136,157.400 232.202 C 156.615 231.350,155.012 230.401,154.411 230.432 C 154.075 230.450,154.298 230.685,154.906 230.955 M198.600 230.800 C 199.701 231.273,200.092 231.273,199.800 230.800 C 199.664 230.580,199.158 230.413,198.676 230.428 C 197.831 230.455,197.829 230.469,198.600 230.800 M212.800 230.800 C 212.005 231.314,213.004 231.314,214.200 230.800 L 215.000 230.456 214.200 230.434 C 213.760 230.422,213.130 230.587,212.800 230.800 M263.633 230.544 C 263.725 230.623,264.340 230.808,265.000 230.956 C 265.876 231.152,266.038 231.115,265.600 230.818 C 265.060 230.453,263.232 230.198,263.633 230.544 M138.396 232.678 C 139.164 233.593,139.857 234.276,139.937 234.196 C 140.182 233.951,138.924 232.362,137.937 231.671 C 137.258 231.196,137.385 231.473,138.396 232.678 M148.344 231.987 C 147.825 232.419,147.543 232.779,147.717 232.787 C 147.891 232.794,148.420 232.440,148.892 232.000 C 149.999 230.969,149.579 230.958,148.344 231.987 M192.743 232.700 C 191.467 234.050,182.073 245.693,181.027 247.224 C 179.951 248.796,183.576 244.488,187.442 239.600 C 189.791 236.630,192.354 233.525,193.138 232.700 C 193.921 231.875,194.472 231.200,194.362 231.200 C 194.252 231.200,193.524 231.875,192.743 232.700 M201.542 232.338 C 202.281 233.032,202.983 233.600,203.104 233.600 C 203.495 233.600,201.834 231.939,201.004 231.501 C 200.562 231.267,200.804 231.644,201.542 232.338 M79.867 234.267 C 79.720 234.413,79.611 234.908,79.625 235.367 C 79.649 236.133,79.682 236.123,80.034 235.242 C 80.426 234.263,80.344 233.789,79.867 234.267 M140.039 237.000 C 140.052 238.396,140.107 238.490,140.470 237.741 C 140.760 237.141,140.756 236.658,140.455 236.141 C 140.097 235.525,140.027 235.669,140.039 237.000 M208.680 236.536 C 208.567 236.831,208.635 237.326,208.831 237.636 C 209.091 238.047,209.189 237.901,209.194 237.100 C 209.201 235.906,209.004 235.690,208.680 236.536 M162.621 239.000 C 164.234 240.968,164.949 241.463,163.633 239.700 C 162.079 237.617,161.711 237.200,161.429 237.200 C 161.274 237.200,161.810 238.010,162.621 239.000 M79.628 238.676 C 79.613 239.158,79.780 239.664,80.000 239.800 C 80.473 240.092,80.473 239.701,80.000 238.600 C 79.669 237.829,79.655 237.831,79.628 238.676 M202.593 240.900 C 201.981 241.835,200.767 243.500,199.895 244.600 L 198.311 246.600 200.331 244.400 C 202.124 242.446,204.339 239.200,203.879 239.200 C 203.784 239.200,203.205 239.965,202.593 240.900 M138.661 241.028 C 137.795 242.113,137.716 242.334,138.332 241.950 C 138.976 241.547,140.268 239.600,139.891 239.600 C 139.841 239.600,139.287 240.243,138.661 241.028 M147.949 241.800 C 148.610 243.009,149.571 244.163,149.757 243.971 C 149.848 243.877,149.380 243.170,148.717 242.400 C 148.054 241.630,147.709 241.360,147.949 241.800 M165.677 242.823 C 168.173 245.886,169.840 247.590,168.003 245.200 C 165.241 241.606,164.897 241.200,164.620 241.200 C 164.474 241.200,164.950 241.930,165.677 242.823 M266.200 242.427 C 265.465 242.898,265.247 243.197,265.638 243.198 C 265.989 243.199,266.602 242.840,267.000 242.400 C 267.879 241.428,267.753 241.433,266.200 242.427 M85.600 243.559 C 85.981 243.831,89.305 243.990,94.700 243.994 L 103.200 244.000 103.224 268.500 C 103.252 297.481,103.269 297.644,106.413 299.504 C 107.230 299.987,107.209 299.935,106.289 299.202 C 103.697 297.138,103.812 298.435,103.681 269.700 L 103.562 243.600 95.281 243.595 C 90.727 243.592,86.550 243.486,86.000 243.360 C 85.216 243.180,85.129 243.223,85.600 243.559 M125.200 243.600 L 117.000 243.825 125.200 243.884 C 129.710 243.917,133.760 243.789,134.200 243.600 L 135.000 243.256 134.200 243.316 C 133.760 243.348,129.710 243.476,125.200 243.600 M215.111 243.672 C 215.490 243.821,219.670 243.924,224.400 243.900 C 234.166 243.850,233.007 243.667,221.911 243.508 C 217.792 243.448,214.732 243.522,215.111 243.672 M254.600 243.600 L 246.200 243.825 254.600 243.906 C 259.495 243.954,263.250 243.826,263.600 243.600 C 264.133 243.255,264.133 243.221,263.600 243.294 C 263.270 243.339,259.220 243.476,254.600 243.600 M151.873 246.857 C 152.933 248.208,154.488 250.053,155.329 250.957 C 156.170 251.861,155.380 250.755,153.573 248.500 C 151.765 246.245,150.210 244.400,150.117 244.400 C 150.023 244.400,150.814 245.506,151.873 246.857 M195.270 250.100 C 193.744 251.915,192.565 253.475,192.648 253.567 C 192.732 253.658,192.854 253.658,192.920 253.567 C 192.987 253.475,194.252 251.915,195.732 250.100 C 197.212 248.285,198.337 246.800,198.233 246.800 C 198.128 246.800,196.795 248.285,195.270 250.100 M158.812 255.398 C 159.750 256.672,160.400 257.286,160.400 256.898 C 160.400 256.701,159.910 256.103,159.312 255.570 C 158.514 254.858,158.381 254.813,158.812 255.398 M189.944 256.700 C 188.675 258.232,188.219 258.942,188.681 258.665 C 189.193 258.358,190.969 256.000,190.689 256.000 C 190.598 256.000,190.263 256.315,189.944 256.700 M161.556 258.600 C 162.949 260.610,163.584 261.350,163.763 261.170 C 163.857 261.076,163.212 260.189,162.330 259.200 C 161.447 258.210,161.099 257.940,161.556 258.600 M185.882 261.944 C 184.056 264.339,184.051 264.213,186.034 266.400 L 187.665 268.200 186.233 266.359 C 184.485 264.113,184.486 264.205,186.204 262.044 C 187.519 260.389,187.762 260.000,187.482 260.000 C 187.417 260.000,186.697 260.875,185.882 261.944 M164.761 262.554 C 165.793 263.973,165.795 264.334,164.780 265.600 C 163.263 267.491,162.346 268.800,162.539 268.800 C 162.922 268.800,166.000 264.683,166.000 264.170 C 166.000 263.881,165.532 263.140,164.961 262.522 L 163.922 261.400 164.761 262.554 M160.487 271.016 C 158.790 273.323,159.083 273.314,160.979 271.000 C 161.790 270.010,162.307 269.207,162.127 269.216 C 161.947 269.224,161.209 270.034,160.487 271.016 M157.696 274.605 C 156.532 276.403,156.800 276.400,158.173 274.600 C 158.760 273.830,159.097 273.202,158.920 273.205 C 158.744 273.208,158.193 273.838,157.696 274.605 M174.800 274.037 C 174.299 274.391,174.296 274.435,174.782 274.303 C 175.102 274.216,175.790 274.608,176.311 275.173 L 177.258 276.200 176.354 274.900 C 175.857 274.185,175.438 273.603,175.425 273.606 C 175.411 273.609,175.130 273.803,174.800 274.037 M192.867 275.000 C 194.973 277.735,197.200 280.393,197.200 280.173 C 197.200 279.816,194.860 276.853,193.431 275.400 C 192.782 274.740,192.528 274.560,192.867 275.000 M173.544 275.500 C 172.275 277.032,171.819 277.742,172.281 277.465 C 172.793 277.158,174.569 274.800,174.289 274.800 C 174.198 274.800,173.863 275.115,173.544 275.500 M154.900 278.178 C 154.185 279.113,153.600 280.009,153.600 280.170 C 153.600 280.330,154.242 279.620,155.027 278.591 C 155.812 277.563,156.397 276.666,156.327 276.599 C 156.257 276.532,155.615 277.242,154.900 278.178 M171.144 278.700 C 169.875 280.232,169.419 280.942,169.881 280.665 C 170.393 280.358,172.169 278.000,171.889 278.000 C 171.798 278.000,171.463 278.315,171.144 278.700 M151.494 282.455 C 150.666 283.525,150.126 284.393,150.294 284.384 C 150.645 284.367,153.342 280.798,153.136 280.624 C 153.061 280.561,152.322 281.385,151.494 282.455 M181.191 281.588 C 181.657 282.241,182.242 282.902,182.491 283.056 C 182.741 283.211,182.441 282.676,181.825 281.868 C 180.488 280.115,179.984 279.892,181.191 281.588 M197.600 280.586 C 197.600 281.041,200.195 284.369,200.562 284.384 C 200.761 284.393,200.660 284.085,200.338 283.700 C 200.015 283.315,199.267 282.401,198.676 281.669 C 198.084 280.937,197.600 280.450,197.600 280.586 M168.744 281.900 C 167.475 283.432,167.019 284.142,167.481 283.865 C 167.993 283.558,169.769 281.200,169.489 281.200 C 169.398 281.200,169.063 281.515,168.744 281.900 M185.476 287.077 C 186.974 289.099,188.347 290.764,188.527 290.777 C 188.862 290.801,186.202 287.294,183.992 284.800 C 183.310 284.030,183.978 285.055,185.476 287.077 M165.765 285.811 C 165.173 286.587,164.759 287.292,164.844 287.377 C 164.930 287.463,165.507 286.828,166.126 285.967 C 167.527 284.017,167.231 283.889,165.765 285.811 M149.144 285.500 C 147.875 287.032,147.419 287.742,147.881 287.465 C 148.393 287.158,150.169 284.800,149.889 284.800 C 149.798 284.800,149.463 285.115,149.144 285.500 M201.996 286.394 C 202.690 287.271,203.467 288.118,203.723 288.276 C 203.978 288.434,203.493 287.716,202.645 286.681 C 201.797 285.647,201.020 284.800,200.918 284.800 C 200.816 284.800,201.301 285.518,201.996 286.394 M163.184 289.223 C 162.705 289.896,162.379 290.513,162.461 290.594 C 162.543 290.676,163.014 290.126,163.508 289.371 C 164.623 287.671,164.371 287.556,163.184 289.223 M160.627 292.600 C 160.040 293.370,159.703 293.998,159.880 293.995 C 160.056 293.992,160.607 293.362,161.104 292.595 C 162.268 290.797,162.000 290.800,160.627 292.600 M189.051 291.600 C 192.023 295.979,195.335 299.299,197.200 299.768 C 197.750 299.907,197.427 299.632,196.483 299.157 C 195.378 298.602,193.893 297.209,192.318 295.248 C 189.879 292.212,188.174 290.308,189.051 291.600 M144.643 292.233 C 144.303 293.118,144.340 295.116,144.700 295.338 C 144.865 295.440,145.000 294.641,145.000 293.562 C 145.000 291.381,144.987 291.335,144.643 292.233 M205.771 293.619 C 205.755 294.686,205.890 295.468,206.071 295.356 C 206.478 295.105,206.494 292.767,206.094 292.139 C 205.932 291.886,205.787 292.551,205.771 293.619 M116.612 295.500 C 116.460 296.325,115.959 297.404,115.499 297.898 C 115.040 298.393,114.752 298.885,114.860 298.994 C 115.238 299.371,116.746 296.897,117.016 295.455 C 117.166 294.655,117.199 294.000,117.089 294.000 C 116.979 294.000,116.764 294.675,116.612 295.500 M233.034 295.400 C 233.157 296.280,233.535 297.270,233.874 297.600 C 234.425 298.137,234.443 298.116,234.051 297.400 C 233.810 296.960,233.432 295.970,233.211 295.200 L 232.809 293.800 233.034 295.400 M246.054 295.011 C 246.025 295.677,245.720 296.622,245.377 297.111 C 245.035 297.600,244.923 298.000,245.129 298.000 C 245.703 298.000,246.488 295.791,246.287 294.738 C 246.140 293.961,246.100 294.008,246.054 295.011 M158.227 295.800 C 157.640 296.570,157.303 297.198,157.480 297.195 C 157.656 297.192,158.207 296.562,158.704 295.795 C 159.868 293.997,159.600 294.000,158.227 295.800 M146.471 298.116 C 147.335 298.960,148.948 300.000,149.389 299.999 C 149.615 299.998,149.235 299.652,148.544 299.231 C 147.853 298.810,147.167 298.270,147.020 298.032 C 146.873 297.795,146.571 297.600,146.348 297.600 C 146.125 297.600,146.181 297.832,146.471 298.116 M202.000 299.254 C 200.982 299.812,200.873 299.949,201.600 299.757 C 202.623 299.486,204.492 298.365,203.789 298.443 C 203.575 298.467,202.770 298.832,202.000 299.254 M235.138 299.208 C 236.590 300.418,239.083 300.952,240.986 300.461 L 242.600 300.045 240.945 300.250 C 239.052 300.485,236.314 299.857,235.447 298.989 C 235.122 298.665,234.709 298.406,234.529 298.413 C 234.348 298.421,234.622 298.778,235.138 299.208 M112.800 299.845 C 111.980 300.167,110.571 300.321,109.400 300.218 C 107.682 300.067,107.569 300.097,108.600 300.433 C 110.061 300.908,112.819 300.574,113.846 299.796 C 114.741 299.119,114.638 299.124,112.800 299.845 M150.905 300.287 C 151.514 300.379,152.414 300.377,152.905 300.282 C 153.397 300.187,152.900 300.111,151.800 300.114 C 150.700 300.117,150.297 300.195,150.905 300.287 M324.198 327.614 C 323.814 329.884,322.925 331.496,320.987 333.434 C 319.490 334.931,318.739 335.398,315.800 336.657 C 315.360 336.846,261.000 337.091,195.000 337.202 L 75.000 337.404 194.400 337.498 C 325.059 337.600,315.688 337.763,319.394 335.326 C 322.385 333.359,326.556 326.000,324.680 326.000 C 324.565 326.000,324.348 326.726,324.198 327.614 " stroke="none" fill="#94a4ac" fill-rule="evenodd"></path></g></svg>